<svg width="1440" height="808" viewBox="0 0 1440 808" fill="none" xmlns="http://www.w3.org/2000/svg">
<path d="M1385.69 1.48408C1385.88 -0.162661 1388.31 -0.162661 1388.51 1.48408L1390.17 15.2987C1392.32 33.1371 1406.6 47.2014 1424.72 49.3179L1438.75 50.9571C1440.42 51.1527 1440.42 53.5422 1438.75 53.7378L1424.72 55.3769C1406.6 57.4935 1392.32 71.5577 1390.17 89.396L1388.51 103.211C1388.31 104.858 1385.88 104.858 1385.69 103.211L1384.02 89.396C1381.87 71.5577 1367.59 57.4935 1349.48 55.3769L1335.45 53.7378C1333.78 53.5422 1333.78 51.1527 1335.45 50.9571L1349.48 49.3179C1367.59 47.2014 1381.87 33.1371 1384.02 15.2987L1385.69 1.48408Z" fill="white"/>
<ellipse cx="219.015" cy="616.053" rx="219.015" ry="215.687" fill="url(#paint0_linear_3039_2351)"/>
<path d="M1404.55 538.374C1404.62 537.748 1405.55 537.748 1405.62 538.374L1406.25 543.623C1407.07 550.402 1412.5 555.746 1419.38 556.55L1424.71 557.173C1425.35 557.248 1425.35 558.156 1424.71 558.23L1419.38 558.853C1412.5 559.657 1407.07 565.002 1406.25 571.78L1405.62 577.03C1405.55 577.656 1404.62 577.656 1404.55 577.03L1403.92 571.78C1403.1 565.002 1397.67 559.657 1390.79 558.853L1385.46 558.23C1384.82 558.156 1384.82 557.248 1385.46 557.173L1390.79 556.55C1397.67 555.746 1403.1 550.402 1403.92 543.623L1404.55 538.374Z" fill="white"/>
<path d="M903.852 178.989C904.11 176.849 907.264 176.849 907.522 178.989L909.686 196.948C912.48 220.138 931.046 238.422 954.593 241.173L972.829 243.304C975.003 243.559 975.003 246.665 972.829 246.919L954.593 249.05C931.046 251.802 912.48 270.085 909.686 293.275L907.522 311.234C907.264 313.375 904.11 313.375 903.852 311.234L901.688 293.275C898.894 270.085 880.328 251.802 856.781 249.05L838.544 246.919C836.371 246.665 836.371 243.559 838.544 243.304L856.781 241.173C880.328 238.422 898.894 220.138 901.688 196.948L903.852 178.989Z" fill="white"/>
<defs>
<linearGradient id="paint0_linear_3039_2351" x1="-33.8638" y1="630.345" x2="487.287" y2="630.345" gradientUnits="userSpaceOnUse">
<stop stop-color="#264882"/>
<stop offset="0.552666" stop-color="#C17FE0"/>
<stop offset="1" stop-color="#FFF9EE"/>
</linearGradient>
</defs>
</svg>
