<svg width="1440" height="5519" viewBox="0 0 1440 5519" fill="none" xmlns="http://www.w3.org/2000/svg">
<rect width="1440" height="12189" fill="url(#paint0_linear_1800_1964)"/>
<rect x="298.52" y="3843.27" width="266.081" height="266.081" rx="13" transform="rotate(27.1582 298.52 3843.27)" stroke="url(#paint1_linear_1800_1964)" stroke-opacity="0.8" stroke-width="10"/>
<g filter="url(#filter0_f_1800_1964)">
<path d="M206.249 5106.51C310.417 5125.63 379.363 5225.58 360.244 5329.74C341.125 5433.91 241.181 5502.86 137.013 5483.74C32.8452 5464.62 -36.1009 5364.68 -16.9821 5260.51C2.13679 5156.34 102.081 5087.39 206.249 5106.51Z" stroke="url(#paint2_linear_1800_1964)" stroke-width="50"/>
</g>
<path d="M227.493 906.45C227.564 905.85 228.436 905.85 228.507 906.45L229.105 911.489C229.877 917.994 235.006 923.123 241.511 923.895L246.55 924.493C247.15 924.564 247.15 925.436 246.55 925.507L241.511 926.105C235.006 926.877 229.877 932.006 229.105 938.511L228.507 943.55C228.436 944.15 227.564 944.15 227.493 943.55L226.895 938.511C226.123 932.006 220.994 926.877 214.489 926.105L209.45 925.507C208.85 925.436 208.85 924.564 209.45 924.493L214.489 923.895C220.994 923.123 226.123 917.994 226.895 911.489L227.493 906.45Z" fill="white"/>
<path d="M298.586 820.256C298.785 818.581 301.215 818.581 301.414 820.256L303.082 834.31C305.235 852.457 319.543 866.765 337.69 868.918L351.743 870.586C353.419 870.785 353.419 873.215 351.743 873.414L337.69 875.082C319.543 877.235 305.235 891.543 303.082 909.69L301.414 923.743C301.215 925.419 298.785 925.419 298.586 923.743L296.918 909.69C294.765 891.543 280.457 877.235 262.31 875.082L248.256 873.414C246.581 873.215 246.581 870.785 248.256 870.586L262.31 868.918C280.457 866.765 294.765 852.457 296.918 834.31L298.586 820.256Z" fill="white"/>
<path d="M1330.67 1058.19C1330.85 1056.6 1333.15 1056.6 1333.33 1058.19L1334.91 1071.44C1336.94 1088.56 1350.44 1102.06 1367.56 1104.09L1380.81 1105.67C1382.4 1105.85 1382.4 1108.15 1380.81 1108.33L1367.56 1109.91C1350.44 1111.94 1336.94 1125.44 1334.91 1142.56L1333.33 1155.81C1333.15 1157.4 1330.85 1157.4 1330.67 1155.81L1329.09 1142.56C1327.06 1125.44 1313.56 1111.94 1296.44 1109.91L1283.19 1108.33C1281.6 1108.15 1281.6 1105.85 1283.19 1105.67L1296.44 1104.09C1313.56 1102.06 1327.06 1088.56 1329.09 1071.44L1330.67 1058.19Z" fill="white"/>
<circle cx="228" cy="1648" r="207" fill="url(#paint3_linear_1800_1964)"/>
<path d="M1348.49 1573.45C1348.56 1572.85 1349.44 1572.85 1349.51 1573.45L1350.1 1578.49C1350.88 1584.99 1356.01 1590.12 1362.51 1590.9L1367.55 1591.49C1368.15 1591.56 1368.15 1592.44 1367.55 1592.51L1362.51 1593.1C1356.01 1593.88 1350.88 1599.01 1350.1 1605.51L1349.51 1610.55C1349.44 1611.15 1348.56 1611.15 1348.49 1610.55L1347.9 1605.51C1347.12 1599.01 1341.99 1593.88 1335.49 1593.1L1330.45 1592.51C1329.85 1592.44 1329.85 1591.56 1330.45 1591.49L1335.49 1590.9C1341.99 1590.12 1347.12 1584.99 1347.9 1578.49L1348.49 1573.45Z" fill="white"/>
<path d="M207.146 3102.76C207.266 3101.75 208.734 3101.75 208.854 3102.76L209.861 3111.24C211.161 3122.2 219.799 3130.84 230.756 3132.14L239.241 3133.15C240.253 3133.27 240.253 3134.73 239.241 3134.85L230.756 3135.86C219.799 3137.16 211.161 3145.8 209.861 3156.76L208.854 3165.24C208.734 3166.25 207.266 3166.25 207.146 3165.24L206.139 3156.76C204.839 3145.8 196.201 3137.16 185.244 3135.86L176.759 3134.85C175.747 3134.73 175.747 3133.27 176.759 3133.15L185.244 3132.14C196.201 3130.84 204.839 3122.2 206.139 3111.24L207.146 3102.76Z" fill="white"/>
<circle cx="1349.69" cy="3950.69" r="175.987" transform="rotate(-14.0186 1349.69 3950.69)" stroke="url(#paint4_linear_1800_1964)" stroke-width="50"/>
<g filter="url(#filter1_f_1800_1964)">
<ellipse cx="1384.29" cy="2516.73" rx="173.856" ry="175.79" transform="rotate(-79.5998 1384.29 2516.73)" fill="url(#paint5_linear_1800_1964)"/>
</g>
<path d="M875.265 1409.54C875.509 1407.49 878.491 1407.49 878.735 1409.54L880.78 1426.78C883.42 1449.03 900.968 1466.58 923.223 1469.22L940.459 1471.27C942.514 1471.51 942.514 1474.49 940.459 1474.73L923.223 1476.78C900.968 1479.42 883.42 1496.97 880.78 1519.22L878.735 1536.46C878.491 1538.51 875.509 1538.51 875.265 1536.46L873.22 1519.22C870.58 1496.97 853.032 1479.42 830.777 1476.78L813.541 1474.73C811.486 1474.49 811.486 1471.51 813.541 1471.27L830.777 1469.22C853.032 1466.58 870.58 1449.03 873.22 1426.78L875.265 1409.54Z" fill="white"/>
<path d="M972.253 1380.66C972.358 1379.78 973.642 1379.78 973.747 1380.66L974.628 1388.09C975.766 1397.68 983.324 1405.23 992.912 1406.37L1000.34 1407.25C1001.22 1407.36 1001.22 1408.64 1000.34 1408.75L992.912 1409.63C983.324 1410.77 975.766 1418.32 974.628 1427.91L973.747 1435.34C973.642 1436.22 972.358 1436.22 972.253 1435.34L971.372 1427.91C970.234 1418.32 962.676 1410.77 953.088 1409.63L945.664 1408.75C944.779 1408.64 944.779 1407.36 945.664 1407.25L953.088 1406.37C962.676 1405.23 970.234 1397.68 971.372 1388.09L972.253 1380.66Z" fill="white"/>
<defs>
<filter id="filter0_f_1800_1964" x="-55.1709" y="5068.32" width="453.604" height="453.603" filterUnits="userSpaceOnUse" color-interpolation-filters="sRGB">
<feFlood flood-opacity="0" result="BackgroundImageFix"/>
<feBlend mode="normal" in="SourceGraphic" in2="BackgroundImageFix" result="shape"/>
<feGaussianBlur stdDeviation="5" result="effect1_foregroundBlur_1800_1964"/>
</filter>
<filter id="filter1_f_1800_1964" x="1198.53" y="2332.78" width="371.516" height="367.9" filterUnits="userSpaceOnUse" color-interpolation-filters="sRGB">
<feFlood flood-opacity="0" result="BackgroundImageFix"/>
<feBlend mode="normal" in="SourceGraphic" in2="BackgroundImageFix" result="shape"/>
<feGaussianBlur stdDeviation="5" result="effect1_foregroundBlur_1800_1964"/>
</filter>
<linearGradient id="paint0_linear_1800_1964" x1="720" y1="0" x2="720" y2="12189" gradientUnits="userSpaceOnUse">
<stop stop-color="#111028"/>
<stop offset="0.0656824" stop-color="#264882"/>
<stop offset="0.237297" stop-color="#305EA0"/>
<stop offset="0.421875" stop-color="#251F4A"/>
<stop offset="0.569065" stop-color="#571277"/>
<stop offset="0.739583" stop-color="#CD91EA"/>
<stop offset="0.949442" stop-color="#251F4A"/>
</linearGradient>
<linearGradient id="paint1_linear_1800_1964" x1="434.394" y1="3836.54" x2="434.394" y2="4112.62" gradientUnits="userSpaceOnUse">
<stop stop-color="#7B6ECA"/>
<stop offset="1" stop-color="#59DACE"/>
</linearGradient>
<linearGradient id="paint2_linear_1800_1964" x1="16.1311" y1="5275.2" x2="442.536" y2="5353.46" gradientUnits="userSpaceOnUse">
<stop stop-color="#9829CC"/>
<stop offset="1" stop-color="#FFD2D2"/>
</linearGradient>
<linearGradient id="paint3_linear_1800_1964" x1="-11.006" y1="1661.72" x2="481.554" y2="1661.72" gradientUnits="userSpaceOnUse">
<stop stop-color="#264882"/>
<stop offset="0.552666" stop-color="#C17FE0"/>
<stop offset="1" stop-color="#FFF9EE"/>
</linearGradient>
<linearGradient id="paint4_linear_1800_1964" x1="1348.87" y1="3713.9" x2="1348.87" y2="4290.01" gradientUnits="userSpaceOnUse">
<stop stop-color="#53EACF"/>
<stop offset="0.434566" stop-color="#248CC7"/>
<stop offset="0.85149" stop-color="#9324C7"/>
</linearGradient>
<linearGradient id="paint5_linear_1800_1964" x1="1199.14" y1="2612.62" x2="1517.41" y2="2368.55" gradientUnits="userSpaceOnUse">
<stop stop-color="#53EAD8"/>
<stop offset="0.586077" stop-color="#6B8ADF"/>
<stop offset="0.921758" stop-color="#565FB8"/>
</linearGradient>
</defs>
</svg>
