<svg width="1440" height="730" viewBox="0 0 1440 730" fill="none" xmlns="http://www.w3.org/2000/svg">
<g clip-path="url(#clip0_1811_3835)">
<rect y="-0.00012207" width="1440" height="730" fill="url(#paint0_linear_1811_3835)"/>
<g filter="url(#filter0_f_1811_3835)">
<path d="M313.6 692.478C335.421 691.651 356.514 703.766 372.765 726.291C388.982 748.77 399.657 780.823 400.303 817.136C400.949 853.449 391.427 886.267 376.03 909.945C360.602 933.671 339.968 947.368 318.147 948.195C296.326 949.022 275.233 936.907 258.982 914.382C242.765 891.902 232.09 859.85 231.444 823.537C230.798 787.224 240.32 754.405 255.717 730.727C271.145 707.001 291.779 693.305 313.6 692.478Z" stroke="url(#paint1_linear_1811_3835)" stroke-width="20"/>
</g>
<rect x="24.627" y="338.082" width="254.262" height="254.262" rx="18" transform="rotate(-159.16 24.627 338.082)" fill="url(#paint2_linear_1811_3835)"/>
<g filter="url(#filter1_f_1811_3835)">
<circle cx="1029.84" cy="-0.161757" r="129.5" transform="rotate(78.6917 1029.84 -0.161757)" fill="url(#paint3_linear_1811_3835)"/>
</g>
<path d="M306.146 58.7585C306.266 57.747 307.734 57.747 307.854 58.7585L308.861 67.2437C310.161 78.2005 318.799 86.839 329.756 88.1391L338.241 89.1459C339.253 89.266 339.253 90.7337 338.241 90.8539L329.756 91.8607C318.799 93.1607 310.161 101.799 308.861 112.756L307.854 121.241C307.734 122.253 306.266 122.253 306.146 121.241L305.139 112.756C303.839 101.799 295.201 93.1607 284.244 91.8607L275.759 90.8539C274.747 90.7337 274.747 89.266 275.759 89.1459L284.244 88.1391C295.201 86.839 303.839 78.2005 305.139 67.2437L306.146 58.7585Z" fill="white"/>
<path d="M1352.69 466.162C1352.88 464.613 1355.12 464.613 1355.31 466.162L1356.85 479.155C1358.84 495.932 1372.07 509.16 1388.85 511.151L1401.84 512.692C1403.39 512.876 1403.39 515.124 1401.84 515.308L1388.85 516.849C1372.07 518.84 1358.84 532.068 1356.85 548.845L1355.31 561.838C1355.12 563.387 1352.88 563.387 1352.69 561.838L1351.15 548.845C1349.16 532.068 1335.93 518.84 1319.15 516.849L1306.16 515.308C1304.61 515.124 1304.61 512.876 1306.16 512.692L1319.15 511.151C1335.93 509.16 1349.16 495.932 1351.15 479.155L1352.69 466.162Z" fill="white"/>
</g>
<defs>
<filter id="filter0_f_1811_3835" x="217.419" y="678.432" width="196.909" height="283.808" filterUnits="userSpaceOnUse" color-interpolation-filters="sRGB">
<feFlood flood-opacity="0" result="BackgroundImageFix"/>
<feBlend mode="normal" in="SourceGraphic" in2="BackgroundImageFix" result="shape"/>
<feGaussianBlur stdDeviation="2" result="effect1_foregroundBlur_1811_3835"/>
</filter>
<filter id="filter1_f_1811_3835" x="890.314" y="-139.687" width="279.049" height="279.05" filterUnits="userSpaceOnUse" color-interpolation-filters="sRGB">
<feFlood flood-opacity="0" result="BackgroundImageFix"/>
<feBlend mode="normal" in="SourceGraphic" in2="BackgroundImageFix" result="shape"/>
<feGaussianBlur stdDeviation="5" result="effect1_foregroundBlur_1811_3835"/>
</filter>
<linearGradient id="paint0_linear_1811_3835" x1="720" y1="-0.00012207" x2="720" y2="730" gradientUnits="userSpaceOnUse">
<stop stop-color="#FFF9EE"/>
<stop offset="1" stop-color="#E9A386"/>
</linearGradient>
<linearGradient id="paint1_linear_1811_3835" x1="190.5" y1="795.701" x2="525.263" y2="858.761" gradientUnits="userSpaceOnUse">
<stop stop-color="#FFF9EE"/>
<stop offset="0.348958" stop-color="#E9A386"/>
<stop offset="0.619792" stop-color="#E56737"/>
</linearGradient>
<linearGradient id="paint2_linear_1811_3835" x1="227.512" y1="436.421" x2="104.088" y2="625.178" gradientUnits="userSpaceOnUse">
<stop offset="0.0799376" stop-color="#E56737"/>
<stop offset="0.396282" stop-color="#E9A386"/>
<stop offset="1" stop-color="#FFF9EE"/>
<stop offset="1" stop-color="#FFF9EE"/>
</linearGradient>
<linearGradient id="paint3_linear_1811_3835" x1="1029.31" y1="-97.1775" x2="1029.84" y2="129.338" gradientUnits="userSpaceOnUse">
<stop stop-color="#E89252"/>
<stop offset="1" stop-color="#FFF9EE"/>
</linearGradient>
<clipPath id="clip0_1811_3835">
<rect width="1440" height="730" fill="white"/>
</clipPath>
</defs>
</svg>
