<svg width="30" height="25" viewBox="0 0 30 25" fill="none" xmlns="http://www.w3.org/2000/svg">
<path d="M21.25 23.5V21C21.25 19.6739 20.7232 18.4021 19.7855 17.4645C18.8479 16.5268 17.5761 16 16.25 16H6.25C4.92392 16 3.65215 16.5268 2.71447 17.4645C1.77678 18.4021 1.25 19.6739 1.25 21V23.5" stroke="white" stroke-width="2" stroke-linecap="round" stroke-linejoin="round"/>
<path d="M11.25 11C14.0114 11 16.25 8.76142 16.25 6C16.25 3.23858 14.0114 1 11.25 1C8.48858 1 6.25 3.23858 6.25 6C6.25 8.76142 8.48858 11 11.25 11Z" stroke="white" stroke-width="2" stroke-linecap="round" stroke-linejoin="round"/>
<path d="M28.75 23.4996V20.9996C28.7492 19.8918 28.3804 18.8156 27.7017 17.94C27.023 17.0644 26.0727 16.4391 25 16.1621" stroke="white" stroke-width="2" stroke-linecap="round" stroke-linejoin="round"/>
<path d="M20 1.16211C21.0755 1.43749 22.0288 2.06299 22.7095 2.94C23.3903 3.81701 23.7598 4.89565 23.7598 6.00586C23.7598 7.11607 23.3903 8.19471 22.7095 9.07172C22.0288 9.94873 21.0755 10.5742 20 10.8496" stroke="white" stroke-width="2" stroke-linecap="round" stroke-linejoin="round"/>
</svg>
