<svg width="26" height="28" viewBox="0 0 26 28" fill="none" xmlns="http://www.w3.org/2000/svg">
<path d="M4 12H10V14H4V12Z" fill="white"/>
<path d="M4 4H16V6H4V4Z" fill="white"/>
<path d="M4 8H16V10H4V8Z" fill="white"/>
<path d="M4 22H10V24H4V22Z" fill="white"/>
<path d="M23 23H17C16.2044 23 15.4413 23.3161 14.8787 23.8787C14.3161 24.4413 14 25.2044 14 26V28H16V26C16 25.7348 16.1054 25.4804 16.2929 25.2929C16.4804 25.1054 16.7348 25 17 25H23C23.2652 25 23.5196 25.1054 23.7071 25.2929C23.8946 25.4804 24 25.7348 24 26V28H26V26C26 25.2044 25.6839 24.4413 25.1213 23.8787C24.5587 23.3161 23.7956 23 23 23Z" fill="white"/>
<path d="M20 22C20.7911 22 21.5645 21.7654 22.2223 21.3259C22.8801 20.8864 23.3928 20.2616 23.6955 19.5307C23.9983 18.7998 24.0775 17.9956 23.9231 17.2196C23.7688 16.4437 23.3878 15.731 22.8284 15.1716C22.269 14.6122 21.5563 14.2312 20.7804 14.0769C20.0044 13.9225 19.2002 14.0017 18.4693 14.3045C17.7384 14.6072 17.1136 15.1199 16.6741 15.7777C16.2346 16.4355 16 17.2089 16 18C16 19.0609 16.4214 20.0783 17.1716 20.8284C17.9217 21.5786 18.9391 22 20 22ZM20 16C20.3956 16 20.7822 16.1173 21.1111 16.3371C21.44 16.5568 21.6964 16.8692 21.8478 17.2346C21.9991 17.6001 22.0387 18.0022 21.9616 18.3902C21.8844 18.7781 21.6939 19.1345 21.4142 19.4142C21.1345 19.6939 20.7781 19.8844 20.3902 19.9616C20.0022 20.0387 19.6001 19.9991 19.2346 19.8478C18.8692 19.6964 18.5568 19.44 18.3371 19.1111C18.1173 18.7822 18 18.3956 18 18C18 17.4696 18.2107 16.9609 18.5858 16.5858C18.9609 16.2107 19.4696 16 20 16Z" fill="white"/>
<path d="M10 28H2C1.46973 27.9995 0.961329 27.7886 0.586371 27.4136C0.211413 27.0387 0.000529477 26.5303 0 26V2C0.000529477 1.46973 0.211413 0.961329 0.586371 0.586371C0.961329 0.211413 1.46973 0.000529477 2 0H18C18.5303 0.000529477 19.0387 0.211413 19.4136 0.586371C19.7886 0.961329 19.9995 1.46973 20 2V12H18V2H2V26H10V28Z" fill="white"/>
</svg>
