<svg width="24" height="25" viewBox="0 0 24 25" fill="none" xmlns="http://www.w3.org/2000/svg">
<path d="M20.75 2.5H19.5V0H17V2.5H7V0H4.5V2.5H3.25C2.58696 2.5 1.95107 2.76339 1.48223 3.23223C1.01339 3.70107 0.75 4.33696 0.75 5V22.5C0.75 23.163 1.01339 23.7989 1.48223 24.2678C1.95107 24.7366 2.58696 25 3.25 25H20.75C21.413 25 22.0489 24.7366 22.5178 24.2678C22.9866 23.7989 23.25 23.163 23.25 22.5V5C23.25 4.33696 22.9866 3.70107 22.5178 3.23223C22.0489 2.76339 21.413 2.5 20.75 2.5ZM20.75 22.5H3.25V10H20.75V22.5ZM3.25 7.5V5H20.75V7.5H3.25ZM5.75 12.5H18.25V15H5.75V12.5ZM5.75 17.5H14.5V20H5.75V17.5Z" fill="white"/>
</svg>
