<svg width="26" height="27" viewBox="0 0 26 27" fill="none" xmlns="http://www.w3.org/2000/svg">
<path d="M13 7.08405C13.3757 7.08405 13.7361 6.93479 14.0017 6.66911C14.2674 6.40344 14.4167 6.0431 14.4167 5.66738C14.4167 5.29166 14.2674 4.93132 14.0017 4.66564C13.7361 4.39997 13.3757 4.25071 13 4.25071C12.6243 4.25071 12.2639 4.39997 11.9983 4.66564C11.7326 4.93132 11.5833 5.29166 11.5833 5.66738C11.5833 6.0431 11.7326 6.40344 11.9983 6.66911C12.2639 6.93479 12.6243 7.08405 13 7.08405ZM13.9534 0.31663C13.6781 0.111063 13.3436 0 13 0C12.6564 0 12.3219 0.111063 12.0466 0.31663L0.752917 8.74721C-0.203333 9.46051 0.301708 10.9799 1.49383 10.9799H2.375V19.4834C1.73912 19.785 1.20188 20.2609 0.825722 20.8558C0.449562 21.4506 0.249922 22.14 0.25 22.8438V25.3229C0.25 25.8117 0.646667 26.2083 1.13542 26.2083H24.8646C25.3533 26.2083 25.75 25.8117 25.75 25.3229V22.8438C25.7501 22.14 25.5504 21.4506 25.1743 20.8558C24.7981 20.2609 24.2609 19.785 23.625 19.4834V10.9792H24.5062C25.699 10.9792 26.2033 9.4598 25.2478 8.7465L13.9534 0.31663ZM21.8542 19.125H18.6667V10.9792H21.8542V19.125ZM16.8958 19.125H13.8854V10.9792H16.8958V19.125ZM12.1146 19.125H9.10417V10.9792H12.1146V19.125ZM7.33333 19.125H4.14583V10.9792H7.33333V19.125ZM3.09325 9.20905L13 1.81405L22.906 9.20905H3.09325ZM2.02083 22.8445C2.02083 22.3278 2.22606 21.8324 2.59136 21.4671C2.95667 21.1018 3.45213 20.8965 3.96875 20.8965H22.0312C22.5479 20.8965 23.0433 21.1018 23.4086 21.4671C23.7739 21.8324 23.9792 22.3278 23.9792 22.8445V24.4382H2.02083V22.8445Z" fill="white"/>
</svg>
