<svg width="106" height="106" viewBox="0 0 106 106" fill="none" xmlns="http://www.w3.org/2000/svg">
<path d="M51.5856 1.25643C51.7846 -0.418809 54.2155 -0.418809 54.4144 1.25643L56.0819 15.3101C58.2351 33.4572 72.5428 47.7649 90.6897 49.9181L104.743 51.5856C106.419 51.7846 106.419 54.2155 104.743 54.4144L90.6897 56.0819C72.5428 58.2351 58.2351 72.5428 56.0819 90.6897L54.4144 104.743C54.2155 106.419 51.7846 106.419 51.5856 104.743L49.9181 90.6897C47.7649 72.5428 33.4572 58.2351 15.3101 56.0819L1.25643 54.4144C-0.418809 54.2155 -0.418809 51.7846 1.25643 51.5856L15.3101 49.9181C33.4572 47.7649 47.7649 33.4572 49.9181 15.3101L51.5856 1.25643Z" fill="white"/>
</svg>
