<svg width="113" height="53" viewBox="0 0 113 53" fill="none" xmlns="http://www.w3.org/2000/svg">
<path d="M45.3075 39.677C44.6757 40.94 43.9355 42.1459 43.0952 43.2811L40.124 42.23C41.1555 41.0248 42.0482 39.7078 42.7856 38.3037C43.575 38.8496 44.4204 39.31 45.3075 39.677V39.677Z" fill="url(#paint0_linear_3450_2378)"/>
<path d="M40.1045 46.6281C38.9572 47.6995 37.7076 48.6563 36.3737 49.4846L33.8342 47.2579C34.8431 46.726 35.8079 46.1146 36.7194 45.4294V45.4277C37.4581 44.8731 38.1591 44.27 38.8179 43.6226L40.1045 46.6281Z" fill="url(#paint1_linear_3450_2378)"/>
<path d="M32.0907 51.5824C30.5455 52.1556 28.9444 52.5658 27.3137 52.8062L25.7512 49.634C27.9182 49.4451 30.0435 48.9258 32.053 48.0942L32.0907 51.5824Z" fill="url(#paint2_linear_3450_2378)"/>
<path d="M23.5532 49.7119L22.1022 52.9999C20.4185 52.8809 18.7526 52.5806 17.1335 52.1042L17.0244 48.5908C19.1288 49.3023 21.3317 49.6806 23.5532 49.7119V49.7119Z" fill="url(#paint3_linear_3450_2378)"/>
<path d="M15.0476 47.8058L12.4203 50.1565C10.9859 49.3751 9.6354 48.449 8.38989 47.3928L9.67643 44.3091C11.279 45.7399 13.0901 46.919 15.0476 47.8058V47.8058Z" fill="url(#paint4_linear_3450_2378)"/>
<path d="M4.11883 36.4773L1.01435 36.5026C0.549244 35.1204 0.209755 33.6992 0 32.2562C0.984338 32.2378 1.96761 32.3303 2.93118 32.532H2.93337C3.19923 33.8825 3.59626 35.2038 4.11883 36.4773V36.4773Z" fill="url(#paint5_linear_3450_2378)"/>
<path d="M8.39581 43.0707L5.30404 44.254C4.31286 43.0503 3.4406 41.7538 2.69946 40.3824L4.86752 38.0947C4.96447 38.2884 5.06785 38.4821 5.17328 38.6718C6.05524 40.2694 7.13821 41.7476 8.39581 43.0707V43.0707Z" fill="url(#paint6_linear_3450_2378)"/>
<path d="M26.4052 44.4386L26.0888 44.4892C26.0024 44.5013 25.9138 44.5123 25.8274 44.5255C25.8231 44.5255 25.8189 44.5275 25.8153 44.5275C25.7899 44.5296 25.7668 44.5338 25.7415 44.536C25.6719 44.5444 25.6044 44.5528 25.5348 44.5613C25.5158 44.5634 25.4947 44.5654 25.4757 44.5676C25.4525 44.5697 25.4272 44.5717 25.4041 44.5739C25.324 44.5822 25.2437 44.5887 25.1617 44.597C25.0753 44.6055 24.9889 44.6118 24.9024 44.616C24.8454 44.6202 24.7884 44.6223 24.7315 44.6265C24.7125 44.6283 24.6935 44.6289 24.6745 44.6286C24.6092 44.6349 24.5439 44.6371 24.4784 44.6391C24.2591 44.6497 24.0399 44.6539 23.8205 44.6539C17.8266 44.6539 12.6154 41.2669 9.94116 36.281C15.0998 41.2647 17.5505 38.7645 17.5505 38.7645C19.8197 35.8474 21.7895 35.7333 21.7895 35.7333C21.7895 35.7333 25.7607 35.2109 28.0785 38.2C30.0523 40.7418 28.3442 44.0784 26.4052 44.4386Z" fill="url(#paint7_linear_3450_2378)"/>
<path d="M30.3815 43.0275C30.0651 43.236 29.7341 43.4361 29.3818 43.6321C29.2553 43.6805 29.1288 43.7269 29.0001 43.7732C28.9706 43.7837 28.9395 43.7943 28.9072 43.8048C28.8251 43.8343 28.7429 43.8617 28.6606 43.887C28.6416 43.8933 28.6243 43.8991 28.6057 43.9059C28.5234 43.9333 28.437 43.9585 28.3527 43.9838C28.2809 44.0049 28.2114 44.0281 28.1396 44.0449C28.1287 44.0494 28.1174 44.0529 28.1058 44.0555C28.0237 44.0808 27.9372 44.1061 27.8507 44.1271C27.8444 44.1292 27.8402 44.1292 27.8338 44.1312C27.7579 44.1523 27.6798 44.1713 27.6018 44.1924C27.5654 44.2008 27.528 44.2092 27.4927 44.2177C27.4506 44.2282 27.4079 44.2366 27.3684 44.2472C27.332 44.2556 27.2988 44.2618 27.265 44.2703C27.2567 44.2724 27.2502 44.2746 27.2419 44.2766C27.2291 44.2787 27.2165 44.2829 27.2038 44.2851C27.1975 44.2871 27.1891 44.2871 27.1827 44.2893C27.1752 44.2917 27.1674 44.2931 27.1596 44.2934C27.0373 44.3208 26.9149 44.3461 26.7904 44.3693C26.6639 44.3946 26.5359 44.4177 26.4066 44.4388C28.3448 44.0786 30.0531 40.742 28.079 38.1997C25.7613 35.21 21.7901 35.733 21.7901 35.733C13.6747 34.7852 9.85519 32.0089 8.05833 29.5613C6.39235 27.2948 6.45985 25.3105 6.45985 25.3105C6.90433 25.9924 7.46042 26.5949 8.10487 27.0926C13.1537 31.0464 23.4899 29.9025 23.4899 29.9025C23.4899 29.9025 28.4502 29.1337 30.7237 33.2412C32.7035 36.82 32.3914 41.2498 30.3815 43.0275Z" fill="url(#paint8_linear_3450_2378)"/>
<path d="M30.3817 43.0272C32.3916 41.2495 32.7036 36.8197 30.7233 33.2409C28.4498 29.1335 23.4894 29.9023 23.4894 29.9023C23.4894 29.9023 11.0843 28.3624 9.9877 20.9164C9.97716 20.8468 9.96868 20.7774 9.96031 20.7057C9.59966 17.6177 8.80248 15.5388 7.97997 14.1575C6.77306 12.1264 5.5127 11.604 5.5127 11.604C7.23151 11.6061 8.51817 11.9747 9.55554 12.5772C11.1985 13.5313 12.2193 15.067 13.3497 16.6572C14.3725 18.0917 15.4861 19.5725 17.2277 20.7057C22.1206 23.8906 26.8679 21.2534 26.8679 21.2534C26.8679 21.2534 29.2722 21.4577 31.5579 23.3514C31.7583 23.5178 31.9606 23.6968 32.1568 23.8906C32.2075 23.939 32.256 23.9896 32.3044 24.0402C32.5007 24.2403 32.6946 24.4551 32.8824 24.6868C32.9287 24.7437 32.9773 24.8027 33.0236 24.8617C33.07 24.9222 33.1143 24.9817 33.1608 25.0449C33.2135 25.1145 33.2662 25.1882 33.3183 25.2619C33.3964 25.3714 33.4722 25.483 33.546 25.599C33.6389 25.7422 33.7295 25.8895 33.8181 26.0433C35.1712 28.3836 38.5351 37.677 30.3817 43.0272Z" fill="url(#paint9_linear_3450_2378)"/>
<path d="M39.6083 28.6408C39.6086 29.5527 39.5324 30.463 39.3806 31.3622C39.3785 31.3743 39.3679 31.4254 39.3552 31.5054C39.3257 31.6676 39.2962 31.8256 39.2624 31.9857C39.2624 31.9877 39.2604 31.992 39.2604 31.9942C39.2561 32.0195 39.2498 32.0426 39.2456 32.0657C39.2119 32.2258 39.1738 32.3838 39.1365 32.5417V32.5439C39.0943 32.7124 39.0501 32.8809 39.0015 33.0494C38.9551 33.2116 38.9088 33.3738 38.8561 33.5335L38.8497 33.5588C38.8433 33.582 38.835 33.603 38.8265 33.6263C38.8075 33.683 38.7901 33.7421 38.7695 33.801C38.7506 33.86 38.7316 33.9169 38.7105 33.9738C38.6852 34.0454 38.6599 34.119 38.6325 34.1908C38.624 34.2117 38.6177 34.235 38.6092 34.256C38.5755 34.3508 38.5397 34.4456 38.5017 34.5404C38.4932 34.5636 38.4827 34.5867 38.4743 34.61C38.4237 34.7406 38.3689 34.869 38.3168 34.9973C38.3131 35.0077 38.3082 35.0176 38.302 35.0267C38.2535 35.1425 38.2029 35.2542 38.1502 35.3679C38.1437 35.3869 38.1332 35.408 38.1248 35.427C38.1127 35.4564 38.0995 35.4839 38.0847 35.5117C38.051 35.5834 38.0172 35.6569 37.9813 35.7286C37.9476 35.8024 37.9097 35.8738 37.8738 35.9456C37.8148 36.0635 37.7536 36.1795 37.6904 36.2953C37.6671 36.3395 37.6439 36.3838 37.6208 36.4259C37.5744 36.5106 37.528 36.5944 37.4794 36.6766C37.469 36.6955 37.4562 36.7145 37.4457 36.7335C37.412 36.7965 37.3739 36.8577 37.3366 36.9208C37.2881 37.0073 37.2354 37.0915 37.1805 37.1758L37.0984 37.3089C37.0562 37.3763 37.0118 37.4459 36.965 37.5132C36.9419 37.5495 36.9186 37.5849 36.8934 37.6207C36.8533 37.6839 36.8111 37.745 36.7669 37.8082C36.7078 37.8967 36.6466 37.983 36.5833 38.0694C36.5496 38.1156 36.5159 38.162 36.4801 38.2083C36.4168 38.299 36.3493 38.3899 36.2796 38.478C36.1573 38.638 36.0308 38.796 35.9021 38.9519C35.8516 39.013 35.7989 39.0762 35.7461 39.1353C35.7208 39.1647 35.6955 39.1958 35.6681 39.2258C35.6407 39.2574 35.6154 39.2863 35.588 39.3163C35.491 39.4279 35.3918 39.5354 35.2927 39.6431C35.2716 39.6684 35.2484 39.6916 35.2273 39.7148C35.1282 39.818 35.0291 39.9213 34.9299 40.0202L34.9131 40.0371C34.8965 40.055 34.8789 40.0719 34.8604 40.0877C34.7513 40.1967 34.641 40.3046 34.5293 40.4079C34.4048 40.5237 34.2804 40.6378 34.1536 40.7491C34.0268 40.8603 33.8984 40.9682 33.7676 41.0777H33.7656C33.6348 41.1851 33.5018 41.2904 33.369 41.3936C33.1012 41.6 32.827 41.7979 32.5465 41.9876C32.4074 42.0825 32.2639 42.1751 32.1205 42.266C31.9772 42.3569 31.8316 42.4429 31.6861 42.5293C31.5511 42.6073 31.4161 42.6852 31.279 42.7593C31.1229 42.844 30.9648 42.9278 30.8044 43.0078C30.7929 43.0143 30.781 43.02 30.7687 43.0248C30.6233 43.0985 30.4754 43.1679 30.3278 43.2354C30.1739 43.3069 30.0178 43.3765 29.8597 43.4417L29.6445 43.5302C29.6044 43.547 29.5623 43.564 29.5201 43.5786C29.4737 43.5976 29.4294 43.6166 29.383 43.6335C29.7353 43.4375 30.0663 43.2374 30.3827 43.0289C38.5361 37.6789 35.1722 28.3852 33.8203 26.0449C33.7317 25.8912 33.6411 25.7438 33.5483 25.6006C33.4745 25.4847 33.3986 25.3731 33.3205 25.2635C33.2678 25.1898 33.2151 25.1161 33.163 25.0465C33.1187 24.9833 33.0722 24.9223 33.0258 24.8634C32.9794 24.8044 32.9331 24.7453 32.8846 24.6885C32.6968 24.4568 32.5029 24.2419 32.3067 24.0419C32.2582 23.9913 32.2097 23.9407 32.1591 23.8923C31.9629 23.6986 31.7605 23.5194 31.5602 23.353C25.193 17.3476 25.6341 12.7388 25.6341 12.7388C25.4021 11.277 23.9638 9.89099 22.711 9.22116C21.8819 8.77327 20.9696 8.50013 20.0305 8.41866C19.965 8.40804 19.8986 8.40379 19.8323 8.40596C21.026 8.27753 21.8126 8.18687 22.8123 8.21229C23.7597 8.2161 24.6996 8.38063 25.5919 8.69887C27.6292 9.48042 28.3442 11.3909 29.7192 12.9096C30.8517 14.1587 32.2142 14.9738 33.5197 16.006C35.6595 17.7016 37.3318 19.9134 38.3788 22.4331C39.1932 24.4015 39.611 26.5109 39.6083 28.6408V28.6408Z" fill="url(#paint10_linear_3450_2378)"/>
<path d="M31.5582 23.3516C29.272 21.4579 26.8682 21.2536 26.8682 21.2536C19.3133 19.5469 14.1463 15.4232 10.3554 8.46564C7.86886 3.90946 7.72974 0 7.72974 0C11.6291 7.49127 17.4966 11.6047 25.6323 12.7374C25.6318 12.7374 25.1911 17.3467 31.5582 23.3516Z" fill="url(#paint11_linear_3450_2378)"/>
<path d="M42.785 38.3039C42.0478 39.708 41.1552 41.025 40.1238 42.2302C39.8623 42.5335 39.5938 42.8298 39.3182 43.1191C39.1537 43.2897 38.9891 43.458 38.8184 43.6225C38.1596 44.2701 37.4584 44.8733 36.7195 45.4281V45.4301C35.808 46.1152 34.8431 46.7265 33.8342 47.2582C33.2563 47.5636 32.6617 47.8438 32.0527 48.0944C30.0431 48.926 27.9179 49.4453 25.7509 49.6342C25.5779 49.649 25.405 49.6615 25.2298 49.6721C24.7848 49.6994 24.333 49.7142 23.88 49.7142C23.7709 49.7142 23.6628 49.7142 23.5528 49.7121C21.3311 49.6811 19.128 49.303 17.0234 48.5916C16.8901 48.5452 16.7576 48.4988 16.6247 48.4504C16.089 48.2568 15.5617 48.0418 15.0472 47.8059C13.0895 46.9191 11.2782 45.74 9.6756 44.3092C9.2327 43.9153 8.80595 43.5025 8.39537 43.0707C7.13789 41.7478 6.05501 40.2698 5.17308 38.6725C5.06765 38.4829 4.96428 38.2891 4.86733 38.0954C4.59522 37.5687 4.34565 37.0294 4.11862 36.4775C3.59614 35.204 3.19918 33.8827 2.9334 32.5323C2.93257 32.5314 2.93194 32.5305 2.93156 32.5294C2.93118 32.5283 2.93106 32.5271 2.93122 32.526C2.96927 32.5344 3.0072 32.5407 3.04514 32.5513L3.07895 32.5575C3.38471 32.625 3.70319 32.705 4.02798 32.7996C4.09548 32.8185 4.16286 32.8396 4.23254 32.8601C4.33579 32.8917 4.43913 32.9254 4.54254 32.9612C4.64592 32.9975 4.75135 33.0329 4.85678 33.0702C4.92634 33.0954 4.99603 33.1207 5.06765 33.1481C5.13091 33.1713 5.19211 33.1965 5.25537 33.2218C5.30809 33.2429 5.36299 33.2639 5.4157 33.2872C5.46418 33.3062 5.51059 33.3251 5.55907 33.3483C5.59495 33.3612 5.63014 33.376 5.6645 33.3925C5.67723 33.3967 5.68983 33.403 5.70462 33.4093C5.71554 33.4134 5.72612 33.4183 5.73625 33.4241C5.99147 33.5357 6.25081 33.66 6.51028 33.7969C6.52126 33.8017 6.53184 33.8073 6.54191 33.8138C6.56712 33.8259 6.59038 33.8391 6.61571 33.8517L6.64092 33.8638C6.64981 33.8679 6.65829 33.8729 6.66625 33.8786C6.68746 33.8891 6.70842 33.8996 6.72963 33.9122C6.75908 33.927 6.79022 33.9439 6.82234 33.9628L6.98049 34.0513C7.0206 34.0744 7.06278 34.0977 7.10495 34.123C7.12398 34.1335 7.14288 34.144 7.16191 34.1566C7.3243 34.2514 7.48669 34.3526 7.65115 34.4579C7.72919 34.5083 7.80724 34.5589 7.88528 34.6116C8.00344 34.6916 8.11942 34.7717 8.23746 34.858C8.29235 34.8959 8.34653 34.936 8.40203 34.976C8.74572 35.2288 9.08735 35.5047 9.4291 35.8081C9.47552 35.848 9.52399 35.8903 9.57041 35.9344C9.57652 35.9388 9.58216 35.9437 9.58725 35.9492C9.60445 35.9628 9.62065 35.9775 9.63573 35.9934C9.73704 36.0861 9.83827 36.1809 9.93943 36.2777L9.94161 36.2799C12.6158 41.2657 17.8271 44.6528 23.8208 44.6528C24.0402 44.6528 24.2595 44.6486 24.4788 44.638C24.5442 44.636 24.6097 44.6339 24.675 44.6276C24.694 44.628 24.713 44.6273 24.7319 44.6254C24.7889 44.6212 24.8457 44.6192 24.9027 44.6149C24.9892 44.6106 25.0757 44.6043 25.1622 44.5959C25.2444 44.5876 25.3245 44.5813 25.4045 44.5728L25.4763 44.5665C25.4953 44.5643 25.5163 44.5623 25.5353 44.5602C25.605 44.5517 25.6725 44.5433 25.742 44.5349C25.7674 44.5327 25.7905 44.5286 25.8158 44.5264C25.8201 44.5264 25.8243 44.5244 25.828 44.5244C25.9145 44.5117 26.003 44.5011 26.0895 44.4881L26.4059 44.4375C26.5345 44.4164 26.6632 44.3933 26.7897 44.368C26.9142 44.3448 27.0365 44.3196 27.1587 44.2921C27.1666 44.2917 27.1745 44.2904 27.182 44.288C27.1883 44.2858 27.1968 44.2858 27.203 44.2837C27.2151 44.2816 27.2283 44.2775 27.241 44.2753C27.2495 44.2732 27.2558 44.271 27.2642 44.269C27.298 44.2605 27.3317 44.2542 27.3675 44.2459C27.4077 44.2352 27.4498 44.2269 27.492 44.2163C27.5284 44.2079 27.5658 44.1995 27.6017 44.191C27.6797 44.17 27.7578 44.1511 27.8336 44.1299C27.8399 44.1278 27.8442 44.1279 27.8505 44.1257C27.937 44.1047 28.0234 44.0794 28.1057 44.0541C28.1173 44.0516 28.1286 44.0481 28.1395 44.0436C28.2111 44.0268 28.2807 44.0035 28.3524 43.9825C28.4373 43.9572 28.5233 43.932 28.6055 43.9045C28.6245 43.8982 28.6418 43.8924 28.6604 43.8856C28.7425 43.8604 28.8248 43.833 28.9071 43.8035C28.9387 43.7929 28.9704 43.7824 28.9998 43.7719C29.1285 43.7255 29.2552 43.6792 29.3816 43.6307C29.428 43.6139 29.4723 43.5944 29.5188 43.576C29.5609 43.5613 29.6036 43.5443 29.6431 43.5276L29.8582 43.4391C30.0165 43.3739 30.1724 43.3044 30.3265 43.2328C30.4741 43.1653 30.6217 43.0959 30.7672 43.0222C30.7798 43.0175 30.7919 43.0118 30.8036 43.0052C30.9638 42.9252 31.1221 42.841 31.278 42.7567C31.4152 42.683 31.5501 42.605 31.6851 42.5267C31.8305 42.4403 31.976 42.354 32.1196 42.2635C32.2632 42.1729 32.4064 42.0802 32.5456 41.9851C32.8261 41.7976 33.1004 41.5995 33.3682 41.391C33.5015 41.2878 33.6338 41.1825 33.7646 41.0751H33.7667C33.8975 40.9662 34.0261 40.8581 34.1526 40.7465C34.2792 40.6349 34.4036 40.5211 34.5283 40.4053C34.6401 40.302 34.7497 40.1945 34.8594 40.085C34.878 40.0693 34.8956 40.0524 34.9121 40.0345L34.929 40.0176C35.0281 39.9187 35.1272 39.8154 35.2264 39.7122C35.2475 39.6891 35.2706 39.6658 35.2918 39.6407C35.3908 39.5332 35.49 39.4257 35.587 39.3139C35.6144 39.2843 35.6397 39.2549 35.6671 39.2233C35.6946 39.1938 35.7198 39.1622 35.7452 39.1327C35.7979 39.0737 35.8506 39.0105 35.9013 38.9494C36.0298 38.7936 36.1565 38.6356 36.2788 38.4755C36.3483 38.3871 36.4158 38.2965 36.4791 38.2059C36.5154 38.1595 36.5487 38.1133 36.5825 38.0669C36.6457 37.9805 36.7069 37.8942 36.7659 37.8057C36.8102 37.7425 36.8524 37.6814 36.8925 37.6182C36.9178 37.5819 36.9409 37.5466 36.9642 37.5109C37.0105 37.4434 37.0549 37.3738 37.0975 37.3065L37.1798 37.1734C37.2346 37.0887 37.2873 37.0049 37.3359 36.9185C37.3738 36.8553 37.4118 36.7943 37.445 36.7311C37.4556 36.7121 37.4682 36.6931 37.4788 36.6742C37.5273 36.592 37.5737 36.5078 37.6201 36.4236C37.6432 36.3814 37.6665 36.3371 37.6896 36.293C37.7529 36.1771 37.8141 36.0613 37.8731 35.9433C37.9095 35.8716 37.947 35.8001 37.9807 35.7264C38.0171 35.6547 38.0503 35.5811 38.0841 35.5093C38.0988 35.482 38.1115 35.4546 38.1241 35.4246C38.1326 35.4056 38.1431 35.3846 38.1494 35.3657C38.2022 35.2519 38.2528 35.1403 38.3013 35.0243C38.3075 35.0152 38.3124 35.0053 38.3161 34.9949C38.3688 34.8664 38.4237 34.738 38.4736 34.6076C38.4821 34.5844 38.4926 34.5612 38.501 34.538C38.539 34.4432 38.5748 34.3484 38.6086 34.2537C38.617 34.2326 38.6234 34.2095 38.6318 34.1884C38.6592 34.1168 38.6845 34.0432 38.7098 33.9714C38.7309 33.9145 38.7499 33.8576 38.7688 33.7987C38.79 33.7397 38.8068 33.6808 38.8258 33.6239C38.8343 33.6007 38.8428 33.5796 38.8491 33.5565C38.8511 33.548 38.8533 33.5397 38.8554 33.5312C38.9081 33.3711 38.9545 33.2089 39.0008 33.047C39.0493 32.8784 39.0935 32.7099 39.1357 32.5415V32.5393C39.1737 32.3819 39.2117 32.2234 39.2447 32.0632C39.249 32.0401 39.2553 32.0169 39.2595 31.9917C39.2595 31.9895 39.2617 31.9854 39.2617 31.9832C39.2954 31.8232 39.325 31.6651 39.3544 31.5029C39.303 31.8784 39.2903 32.2582 39.3165 32.6362C39.3165 32.6593 39.3187 32.6826 39.3207 32.7057C39.3228 32.7373 39.325 32.7711 39.3291 32.8047C39.3313 32.849 39.3376 32.8952 39.3412 32.9438C39.3454 32.9859 39.3517 33.0301 39.358 33.0744C39.3686 33.1502 39.3791 33.2302 39.3944 33.3103C39.4007 33.3502 39.4065 33.3903 39.4155 33.4324C39.4303 33.5146 39.4492 33.5989 39.4682 33.6831C39.4851 33.7589 39.5046 33.8348 39.5252 33.9131C39.5379 33.9635 39.5526 34.0163 39.5694 34.0704C39.5842 34.1231 39.601 34.1779 39.6179 34.2306C39.6347 34.2853 39.6542 34.3401 39.6727 34.3948L39.6848 34.4327C39.6996 34.4728 39.7142 34.5149 39.7311 34.557C39.7417 34.5886 39.7543 34.6202 39.7691 34.6538C39.7839 34.6917 39.7986 34.7318 39.8154 34.7697C39.8518 34.856 39.8893 34.9424 39.9315 35.0309C39.9778 35.1382 40.0327 35.2478 40.0917 35.3577C40.1281 35.4251 40.1635 35.4925 40.2056 35.562C40.2731 35.6841 40.349 35.8064 40.4313 35.9285C40.4651 35.9833 40.503 36.038 40.5404 36.0929C40.574 36.1433 40.6099 36.1939 40.648 36.2445C40.7344 36.3646 40.8272 36.4846 40.9267 36.6026C40.973 36.6615 41.0237 36.7206 41.0764 36.7816C41.0912 36.7984 41.1059 36.8154 41.1228 36.8342C41.1713 36.8891 41.2219 36.9432 41.2726 36.9986C41.3843 37.1186 41.5028 37.2388 41.629 37.3566C41.6732 37.401 41.7196 37.4431 41.7661 37.4852C41.823 37.5378 41.88 37.5905 41.9411 37.641C42.0191 37.7106 42.0993 37.778 42.1834 37.8453C42.348 37.9801 42.5209 38.1129 42.7045 38.2435C42.7066 38.2456 42.7088 38.2456 42.7108 38.2476C42.7365 38.2701 42.7617 38.2867 42.785 38.3039Z" fill="url(#paint12_linear_3450_2378)"/>
<path d="M51.9589 11.5156C50.7398 8.71607 47.6818 9.11006 47.6818 9.11006C45.7289 9.31861 44.1999 11.0647 43.6199 12.8381C43.544 13.0699 43.4807 13.3058 43.426 13.5437C43.4139 13.5964 43.4007 13.649 43.3896 13.7039C43.3775 13.7713 43.3623 13.837 43.3517 13.904C43.3396 13.9651 43.3286 14.024 43.3201 14.0855C43.308 14.146 43.299 14.2076 43.2905 14.2671C42.8392 17.3362 43.7988 20.6347 43.8979 20.9613C43.8994 20.9678 43.9015 20.9741 43.9042 20.9802C43.9054 20.9821 43.9061 20.9843 43.9064 20.9866C44.5889 22.8283 45.012 24.7558 45.1634 26.7138C45.1652 26.7334 45.1659 26.7531 45.1654 26.7728C45.1665 26.7747 45.1671 26.7769 45.1671 26.7791C45.1671 26.7814 45.1665 26.7835 45.1654 26.7855C45.176 27.2172 45.1085 28.6623 43.7925 28.7865C41.9868 28.9551 42.2488 26.7602 42.1728 25.6228C41.9387 22.1198 38.3787 22.4336 38.3787 22.4336C37.9606 21.4261 37.4407 20.4638 36.8269 19.5617C35.5341 16.9014 35.9706 13.3669 36.4578 11.1572C36.6075 10.455 36.7962 9.76159 37.023 9.08028C37.023 9.08028 37.6473 9.40467 38.7418 9.47003C39.2865 9.50175 39.833 9.46925 40.37 9.3732C41.5576 9.16743 43.0119 8.6276 44.6512 7.44794C48.1247 4.94363 51.6911 9.11006 51.9589 11.5156Z" fill="url(#paint13_linear_3450_2378)"/>
<path d="M51.9586 11.5155C51.6908 9.10997 48.1244 4.94305 44.6509 7.44797C40.1398 10.6982 37.0227 9.08043 37.0227 9.08043C34.8336 7.82924 33.796 6.32738 33.3404 4.97937C32.9369 3.80844 32.9052 2.54163 33.2498 1.35205C36.5861 5.74821 42.7296 2.31686 47.9388 3.71753C53.1501 5.11832 51.9586 11.5155 51.9586 11.5155Z" fill="url(#paint14_linear_3450_2378)"/>
<path d="M47.9012 28.6396C47.9084 32.399 47.0527 36.1101 45.3999 39.4876C45.3704 39.5508 45.3393 39.614 45.3071 39.6772C42.8543 37.0884 44.6153 34.9483 45.052 32.6312C45.4864 30.3121 45.1659 26.786 45.1659 26.786C45.1668 26.7841 45.1673 26.782 45.1673 26.7799C45.1673 26.7778 45.1668 26.7758 45.1659 26.7739C45.1664 26.7542 45.1656 26.7344 45.1637 26.7148C45.0123 24.7568 44.5893 22.8293 43.9067 20.9876C43.9065 20.9854 43.9058 20.9832 43.9047 20.9813C43.9019 20.9752 43.8998 20.9688 43.8984 20.9623C43.7992 20.6355 42.8395 17.3371 43.291 14.2681C46.2999 18.4566 47.9128 23.4845 47.9012 28.6396V28.6396Z" fill="url(#paint15_linear_3450_2378)"/>
<path d="M45.3073 39.6771C44.42 39.3101 43.5745 38.8497 42.785 38.3038C42.7617 38.2868 42.7365 38.27 42.7132 38.251C42.7112 38.2489 42.709 38.2489 42.7069 38.2469C42.5234 38.1163 42.3505 37.9835 42.1858 37.8486C42.101 37.7813 42.0214 37.7139 41.9434 37.6443C41.8828 37.5939 41.8254 37.5412 41.7684 37.4886C41.722 37.4464 41.6756 37.4038 41.6314 37.36C41.5047 37.2421 41.3867 37.1219 41.275 37.002C41.2222 36.9471 41.1738 36.893 41.1252 36.8376C41.1083 36.8187 41.0935 36.8013 41.0788 36.785C41.026 36.726 40.9776 36.6649 40.9291 36.6059C40.83 36.4879 40.7371 36.368 40.6504 36.2479C40.6123 36.1973 40.5764 36.1467 40.5427 36.0962C40.5048 36.0414 40.4669 35.9867 40.4337 35.9319C40.3514 35.8097 40.2761 35.6875 40.208 35.5654C40.1679 35.4979 40.13 35.4285 40.0941 35.361C40.0351 35.2515 39.9802 35.142 39.9339 35.0342C39.8917 34.9458 39.8538 34.8593 39.8178 34.773C39.8009 34.7351 39.7863 34.6951 39.7715 34.6572C39.7567 34.6234 39.7441 34.5918 39.7334 34.5604C39.7166 34.5182 39.7019 34.4756 39.6871 34.4361L39.675 34.3982C39.656 34.3435 39.6371 34.2886 39.6203 34.2339C39.6033 34.1813 39.5864 34.1264 39.5718 34.0738C39.5549 34.0191 39.5403 33.9663 39.5275 33.9164C39.5065 33.8385 39.4874 33.7626 39.4706 33.6865C39.4516 33.6017 39.4327 33.518 39.4179 33.4358C39.4094 33.3937 39.4031 33.3536 39.3968 33.3137C39.382 33.2335 39.3715 33.1535 39.3604 33.0777C39.3541 33.0334 39.3483 32.9893 39.3436 32.9471C39.3393 32.9008 39.3351 32.8524 39.3315 32.8081C39.3273 32.7744 39.3252 32.7407 39.3231 32.7091C39.321 32.6859 39.3189 32.6627 39.3189 32.6396C39.2926 32.2615 39.3053 31.8818 39.3568 31.5063C39.3695 31.4263 39.3801 31.3757 39.3821 31.3631C39.8908 28.3517 39.5438 25.2582 38.3804 22.434C38.3804 22.434 41.9403 22.1201 42.1744 25.6232C42.2504 26.7609 41.9889 28.9555 43.7941 28.787C45.1102 28.6627 45.1777 27.2177 45.1672 26.7859C45.1672 26.7859 45.4877 30.312 45.0533 32.6311C44.6155 34.9482 42.8545 37.0883 45.3073 39.6771Z" fill="url(#paint16_linear_3450_2378)"/>
<path d="M57.9705 16.6587H55.009V27.2758H57.9705V16.6587Z" fill="url(#paint17_linear_3450_2378)"/>
<path d="M59.9138 16.6587H62.6624L67.036 22.2707V16.6587H69.9517V27.2758H67.3704L62.8296 21.4516V27.2759H59.9138V16.6587Z" fill="url(#paint18_linear_3450_2378)"/>
<path d="M74.8558 16.6587H71.8943V27.2758H74.8558V16.6587Z" fill="url(#paint19_linear_3450_2378)"/>
<path d="M81.0054 16.6587H83.9513V24.6974H89.0994V27.2756H81.0054V16.6587Z" fill="url(#paint20_linear_3450_2378)"/>
<path d="M90.3589 16.6587H93.3049V20.6324H97.0859V16.6587H100.032V27.2758H97.0863V23.2413H93.3052V27.2758H90.3589V16.6587Z" fill="url(#paint21_linear_3450_2378)"/>
<path d="M107.29 16.4463C104.01 16.4463 101.55 18.9184 101.55 21.9672V21.9973C101.55 25.046 103.979 27.488 107.259 27.488C110.54 27.488 113 25.0159 113 21.9672V21.9367C113 18.8881 110.571 16.4463 107.29 16.4463ZM109.992 21.9973C109.992 23.5294 108.914 24.8337 107.29 24.8337C105.68 24.8337 104.572 23.499 104.572 21.9672V21.9367C104.572 20.4048 105.65 19.1005 107.259 19.1005C108.884 19.1005 109.993 20.4353 109.993 21.9672L109.992 21.9973Z" fill="url(#paint22_linear_3450_2378)"/>
<path d="M57.9705 34.8579H55.009V45.475H57.9705V34.8579Z" fill="url(#paint23_linear_3450_2378)"/>
<path d="M62.5106 37.4365H59.3215V34.8584H68.6458V37.4365H65.4568V45.4753H62.5106V37.4365Z" fill="url(#paint24_linear_3450_2378)"/>
<path d="M68.9031 43.898L70.5431 41.942C71.591 42.7761 72.7609 43.2161 73.9905 43.2161C74.7801 43.2161 75.2051 42.943 75.2051 42.4879V42.4578C75.2051 42.0179 74.8559 41.7752 73.4133 41.4411C71.1505 40.9254 69.4042 40.2883 69.4042 38.1041V38.074C69.4042 36.102 70.9682 34.6763 73.5196 34.6763C75.3267 34.6763 76.7391 35.1618 77.8931 36.0869L76.4198 38.1648C75.448 37.4822 74.385 37.1181 73.4434 37.1181C72.7297 37.1181 72.3805 37.4214 72.3805 37.8007V37.831C72.3805 38.3163 72.7448 38.5288 74.2179 38.8624C76.6629 39.3934 78.1814 40.1818 78.1814 42.169V42.1991C78.1814 44.3682 76.4654 45.6575 73.8837 45.6575C72.0009 45.658 70.2091 45.0658 68.9031 43.898Z" fill="url(#paint25_linear_3450_2378)"/>
<path d="M79.4868 36.1471V34.8579H82.7669V36.1471L81.8862 42.0175H80.3674L79.4868 36.1471Z" fill="url(#paint26_linear_3450_2378)"/>
<path d="M82.6302 42.897H79.6233V45.4755H82.6302V42.897Z" fill="url(#paint27_linear_3450_2378)"/>
<path d="M98.3782 38.8325C97.7844 38.8325 97.3911 39.4331 97.3911 40.2958V40.3113C97.3911 41.1737 97.7921 41.7899 98.3937 41.7899C98.9953 41.7899 99.3807 41.1814 99.3807 40.3265V40.3113C99.3807 39.4562 98.9719 38.8325 98.3782 38.8325Z" fill="url(#paint28_linear_3450_2378)"/>
<path d="M112.374 34.8579H91.9885C91.781 34.858 91.5803 34.9315 91.422 35.0654L85.5976 39.9956C85.5005 40.0777 85.4226 40.1799 85.3691 40.2952C85.3156 40.4104 85.2879 40.5359 85.2878 40.663V45.0325C85.2879 45.1982 85.3538 45.3572 85.4711 45.4744C85.5885 45.5916 85.7476 45.6574 85.9135 45.6574H112.374C112.54 45.6574 112.699 45.5916 112.816 45.4744C112.934 45.3572 113 45.1982 113 45.0325V35.4828C113 35.3171 112.934 35.1581 112.816 35.0409C112.699 34.9238 112.54 34.8579 112.374 34.8579ZM95.2865 43.0065H91.0144V41.8821L93.0346 40.3419C93.5357 39.949 93.7286 39.6949 93.7286 39.3714C93.7286 39.0324 93.4895 38.8246 93.127 38.8246C92.7646 38.8246 92.4794 39.0326 92.0552 39.5177L91.0451 38.6783C91.6234 37.9312 92.1941 37.5231 93.2426 37.5231C94.4225 37.5231 95.2322 38.2239 95.2322 39.2405V39.2559C95.2322 40.1185 94.7849 40.5652 93.983 41.1428L93.0577 41.7897H95.2862L95.2865 43.0065ZM100.884 40.3111C100.884 41.8362 99.9202 43.1143 98.3781 43.1143C96.836 43.1143 95.8875 41.8513 95.8875 40.3264V40.3111C95.8875 38.786 96.8591 37.5077 98.3936 37.5077C99.9281 37.5077 100.884 38.7705 100.884 40.2956L100.884 40.3111ZM105.649 43.0069H101.377V41.8824L103.397 40.3422C103.898 39.9493 104.091 39.6953 104.091 39.3717C104.091 39.0328 103.852 38.825 103.49 38.825C103.127 38.825 102.842 39.0329 102.418 39.5181L101.408 38.6786C101.986 37.9316 102.557 37.5234 103.605 37.5234C104.785 37.5234 105.595 38.2243 105.595 39.2409V39.2563C105.595 40.1189 105.147 40.5655 104.346 41.1431L103.42 41.7901H105.649V43.0069ZM110.46 43.0069H106.188V41.8824L108.208 40.3422C108.71 39.9493 108.902 39.6953 108.902 39.3717C108.902 39.0328 108.663 38.825 108.301 38.825C107.939 38.825 107.653 39.0329 107.229 39.5181L106.219 38.6786C106.797 37.9316 107.368 37.5234 108.416 37.5234C109.596 37.5234 110.406 38.2243 110.406 39.2409V39.2563C110.406 40.1189 109.959 40.5655 109.157 41.1431L108.231 41.7901H110.46V43.0069Z" fill="url(#paint29_linear_3450_2378)"/>
<defs>
<linearGradient id="paint0_linear_3450_2378" x1="44.8876" y1="42.3006" x2="40.9932" y2="39.6828" gradientUnits="userSpaceOnUse">
<stop stop-color="#F0C9DE"/>
<stop offset="0.511" stop-color="#A562E9"/>
<stop offset="0.567" stop-color="#A05FE3"/>
<stop offset="0.639" stop-color="#9358D2"/>
<stop offset="0.721" stop-color="#7F4DB7"/>
<stop offset="0.809" stop-color="#623D91"/>
<stop offset="0.904" stop-color="#3D2861"/>
<stop offset="1" stop-color="#111028"/>
</linearGradient>
<linearGradient id="paint1_linear_3450_2378" x1="38.794" y1="48.8222" x2="36.1621" y2="44.7002" gradientUnits="userSpaceOnUse">
<stop stop-color="#F0C9DE"/>
<stop offset="0.541" stop-color="#A562E9"/>
<stop offset="0.593" stop-color="#A05FE3"/>
<stop offset="0.661" stop-color="#9358D2"/>
<stop offset="0.738" stop-color="#7F4DB7"/>
<stop offset="0.821" stop-color="#623D91"/>
<stop offset="0.909" stop-color="#3D2861"/>
<stop offset="1" stop-color="#111028"/>
</linearGradient>
<linearGradient id="paint2_linear_3450_2378" x1="30.0684" y1="53.3057" x2="29.253" y2="47.6955" gradientUnits="userSpaceOnUse">
<stop stop-color="#F0C9DE"/>
<stop offset="0.511" stop-color="#A562E9"/>
<stop offset="0.564" stop-color="#A05FE3"/>
<stop offset="0.633" stop-color="#9358D2"/>
<stop offset="0.711" stop-color="#7F4DB7"/>
<stop offset="0.795" stop-color="#623D91"/>
<stop offset="0.885" stop-color="#3D2861"/>
<stop offset="0.976" stop-color="#111028"/>
</linearGradient>
<linearGradient id="paint3_linear_3450_2378" x1="19.5184" y1="53.6657" x2="19.9623" y2="47.955" gradientUnits="userSpaceOnUse">
<stop stop-color="#F0C9DE"/>
<stop offset="0.541" stop-color="#A562E9"/>
<stop offset="0.593" stop-color="#A05FE3"/>
<stop offset="0.661" stop-color="#9358D2"/>
<stop offset="0.738" stop-color="#7F4DB7"/>
<stop offset="0.821" stop-color="#623D91"/>
<stop offset="0.909" stop-color="#3D2861"/>
<stop offset="1" stop-color="#111028"/>
</linearGradient>
<linearGradient id="paint4_linear_3450_2378" x1="9.70147" y1="49.8758" x2="12.5279" y2="44.6245" gradientUnits="userSpaceOnUse">
<stop stop-color="#F0C9DE"/>
<stop offset="0.541" stop-color="#A562E9"/>
<stop offset="0.593" stop-color="#A05FE3"/>
<stop offset="0.661" stop-color="#9358D2"/>
<stop offset="0.738" stop-color="#7F4DB7"/>
<stop offset="0.821" stop-color="#623D91"/>
<stop offset="0.909" stop-color="#3D2861"/>
<stop offset="1" stop-color="#111028"/>
</linearGradient>
<linearGradient id="paint5_linear_3450_2378" x1="-0.650775" y1="34.9009" x2="5.06587" y2="33.8445" gradientUnits="userSpaceOnUse">
<stop stop-color="#F0C9DE"/>
<stop offset="0.541" stop-color="#A562E9"/>
<stop offset="0.593" stop-color="#A05FE3"/>
<stop offset="0.661" stop-color="#9358D2"/>
<stop offset="0.738" stop-color="#7F4DB7"/>
<stop offset="0.821" stop-color="#623D91"/>
<stop offset="0.909" stop-color="#3D2861"/>
<stop offset="1" stop-color="#111028"/>
</linearGradient>
<linearGradient id="paint6_linear_3450_2378" x1="3.19504" y1="43.0775" x2="7.95479" y2="40.1208" gradientUnits="userSpaceOnUse">
<stop stop-color="#F0C9DE"/>
<stop offset="0.541" stop-color="#A562E9"/>
<stop offset="0.593" stop-color="#A05FE3"/>
<stop offset="0.661" stop-color="#9358D2"/>
<stop offset="0.738" stop-color="#7F4DB7"/>
<stop offset="0.821" stop-color="#623D91"/>
<stop offset="0.909" stop-color="#3D2861"/>
<stop offset="1" stop-color="#111028"/>
</linearGradient>
<linearGradient id="paint7_linear_3450_2378" x1="15.8927" y1="46.0062" x2="17.5706" y2="31.1299" gradientUnits="userSpaceOnUse">
<stop stop-color="#53EA90"/>
<stop offset="0.851" stop-color="#3B71C7"/>
</linearGradient>
<linearGradient id="paint8_linear_3450_2378" x1="13.9089" y1="39.8289" x2="22.0021" y2="21.7842" gradientUnits="userSpaceOnUse">
<stop stop-color="#53EA90"/>
<stop offset="0.725" stop-color="#3B71C7"/>
</linearGradient>
<linearGradient id="paint9_linear_3450_2378" x1="0.507433" y1="27.3156" x2="47.8464" y2="27.3156" gradientUnits="userSpaceOnUse">
<stop stop-color="#53EA90"/>
<stop offset="0.064" stop-color="#51E492"/>
<stop offset="0.143" stop-color="#4ED599"/>
<stop offset="0.23" stop-color="#49BCA4"/>
<stop offset="0.323" stop-color="#4299B4"/>
<stop offset="0.41" stop-color="#3B71C7"/>
<stop offset="1" stop-color="#111028"/>
</linearGradient>
<linearGradient id="paint10_linear_3450_2378" x1="18.9226" y1="25.9207" x2="37.3143" y2="25.9207" gradientUnits="userSpaceOnUse">
<stop stop-color="#53EA90"/>
<stop offset="1" stop-color="#3B71C7"/>
</linearGradient>
<linearGradient id="paint11_linear_3450_2378" x1="-6.18607" y1="-0.420329" x2="46.4483" y2="26.3258" gradientUnits="userSpaceOnUse">
<stop offset="0.026" stop-color="#53EA90"/>
<stop offset="0.11" stop-color="#51E492"/>
<stop offset="0.214" stop-color="#4ED599"/>
<stop offset="0.329" stop-color="#49BCA4"/>
<stop offset="0.45" stop-color="#4299B4"/>
<stop offset="0.566" stop-color="#3B71C7"/>
<stop offset="0.884" stop-color="#111028"/>
</linearGradient>
<linearGradient id="paint12_linear_3450_2378" x1="-4.92006" y1="43.1581" x2="41.5982" y2="19.2177" gradientUnits="userSpaceOnUse">
<stop stop-color="#F0C9DE"/>
<stop offset="0.541" stop-color="#A562E9"/>
<stop offset="0.593" stop-color="#A05FE3"/>
<stop offset="0.661" stop-color="#9358D2"/>
<stop offset="0.738" stop-color="#7F4DB7"/>
<stop offset="0.821" stop-color="#623D91"/>
<stop offset="0.909" stop-color="#3D2861"/>
<stop offset="1" stop-color="#111028"/>
</linearGradient>
<linearGradient id="paint13_linear_3450_2378" x1="43.9667" y1="-5.91352" x2="43.9667" y2="41.8697" gradientUnits="userSpaceOnUse">
<stop offset="0.096" stop-color="#53EA90"/>
<stop offset="0.161" stop-color="#51E492"/>
<stop offset="0.242" stop-color="#4ED599"/>
<stop offset="0.331" stop-color="#49BCA4"/>
<stop offset="0.425" stop-color="#4299B4"/>
<stop offset="0.515" stop-color="#3B71C7"/>
<stop offset="0.988" stop-color="#111028"/>
</linearGradient>
<linearGradient id="paint14_linear_3450_2378" x1="26.9887" y1="4.31978" x2="50.5562" y2="15.5493" gradientUnits="userSpaceOnUse">
<stop offset="0.14" stop-color="#53EA90"/>
<stop offset="1" stop-color="#3B71C7"/>
</linearGradient>
<linearGradient id="paint15_linear_3450_2378" x1="50.0347" y1="26.9726" x2="40.2333" y2="26.9726" gradientUnits="userSpaceOnUse">
<stop stop-color="#F0C9DE"/>
<stop offset="0.492" stop-color="#A562E9"/>
<stop offset="0.537" stop-color="#A05FE3"/>
<stop offset="0.597" stop-color="#9358D2"/>
<stop offset="0.664" stop-color="#7F4DB7"/>
<stop offset="0.736" stop-color="#623D91"/>
<stop offset="0.814" stop-color="#3D2861"/>
<stop offset="0.893" stop-color="#111028"/>
</linearGradient>
<linearGradient id="paint16_linear_3450_2378" x1="41.8438" y1="46.9567" x2="41.8438" y2="24.2898" gradientUnits="userSpaceOnUse">
<stop stop-color="#F0C9DE"/>
<stop offset="1" stop-color="#A562E9"/>
</linearGradient>
<linearGradient id="paint17_linear_3450_2378" x1="56.4898" y1="15.6501" x2="56.4898" y2="27.8279" gradientUnits="userSpaceOnUse">
<stop stop-color="#53EA90"/>
<stop offset="1" stop-color="#3B71C7"/>
</linearGradient>
<linearGradient id="paint18_linear_3450_2378" x1="64.9328" y1="15.6501" x2="64.9328" y2="27.828" gradientUnits="userSpaceOnUse">
<stop stop-color="#53EA90"/>
<stop offset="1" stop-color="#3B71C7"/>
</linearGradient>
<linearGradient id="paint19_linear_3450_2378" x1="73.375" y1="15.6501" x2="73.375" y2="27.8279" gradientUnits="userSpaceOnUse">
<stop stop-color="#53EA90"/>
<stop offset="1" stop-color="#3B71C7"/>
</linearGradient>
<linearGradient id="paint20_linear_3450_2378" x1="85.0524" y1="15.6501" x2="85.0524" y2="27.8276" gradientUnits="userSpaceOnUse">
<stop stop-color="#53EA90"/>
<stop offset="1" stop-color="#3B71C7"/>
</linearGradient>
<linearGradient id="paint21_linear_3450_2378" x1="95.1956" y1="15.6501" x2="95.1956" y2="27.8279" gradientUnits="userSpaceOnUse">
<stop stop-color="#53EA90"/>
<stop offset="1" stop-color="#3B71C7"/>
</linearGradient>
<linearGradient id="paint22_linear_3450_2378" x1="107.275" y1="15.6513" x2="107.275" y2="27.8303" gradientUnits="userSpaceOnUse">
<stop stop-color="#53EA90"/>
<stop offset="1" stop-color="#3B71C7"/>
</linearGradient>
<linearGradient id="paint23_linear_3450_2378" x1="56.4898" y1="47.7259" x2="56.4898" y2="35.1658" gradientUnits="userSpaceOnUse">
<stop stop-color="#53EA90"/>
<stop offset="1" stop-color="#3B71C7"/>
</linearGradient>
<linearGradient id="paint24_linear_3450_2378" x1="63.9837" y1="47.726" x2="63.9837" y2="35.1663" gradientUnits="userSpaceOnUse">
<stop stop-color="#53EA90"/>
<stop offset="1" stop-color="#3B71C7"/>
</linearGradient>
<linearGradient id="paint25_linear_3450_2378" x1="73.5422" y1="47.7219" x2="73.5422" y2="35.1704" gradientUnits="userSpaceOnUse">
<stop stop-color="#53EA90"/>
<stop offset="1" stop-color="#3B71C7"/>
</linearGradient>
<linearGradient id="paint26_linear_3450_2378" x1="81.1269" y1="47.7237" x2="81.1269" y2="35.1658" gradientUnits="userSpaceOnUse">
<stop stop-color="#53EA90"/>
<stop offset="1" stop-color="#3B71C7"/>
</linearGradient>
<linearGradient id="paint27_linear_3450_2378" x1="81.1268" y1="47.7239" x2="81.1268" y2="35.1666" gradientUnits="userSpaceOnUse">
<stop stop-color="#53EA90"/>
<stop offset="1" stop-color="#3B71C7"/>
</linearGradient>
<linearGradient id="paint28_linear_3450_2378" x1="98.3859" y1="32.0749" x2="98.3859" y2="46.6636" gradientUnits="userSpaceOnUse">
<stop stop-color="#3B71C7"/>
<stop offset="1" stop-color="#A562E9"/>
</linearGradient>
<linearGradient id="paint29_linear_3450_2378" x1="99.1438" y1="32.0716" x2="99.1438" y2="46.6618" gradientUnits="userSpaceOnUse">
<stop stop-color="#3B71C7"/>
<stop offset="1" stop-color="#A562E9"/>
</linearGradient>
</defs>
</svg>
