<svg width="546" height="335" viewBox="0 0 546 335" fill="none" xmlns="http://www.w3.org/2000/svg">
<path d="M65 184C65 100.605 132.605 33 216 33H546V335H216C132.605 335 65 267.395 65 184V184Z" fill="url(#paint0_linear_3438_2377)"/>
<g filter="url(#filter0_b_3438_2377)">
<path d="M0 150.961C0 67.5874 67.5874 0 150.961 0H545.641V301.921H150.961C67.5874 301.921 0 234.334 0 150.961V150.961Z" fill="url(#paint1_linear_3438_2377)" fill-opacity="0.7"/>
<path d="M150.961 2H543.641V299.921H150.961C68.692 299.921 2 233.229 2 150.961C2 68.692 68.692 2 150.961 2Z" stroke="url(#paint2_linear_3438_2377)" stroke-opacity="0.5" stroke-width="4"/>
</g>
<defs>
<filter id="filter0_b_3438_2377" x="-20" y="-20" width="585.641" height="341.921" filterUnits="userSpaceOnUse" color-interpolation-filters="sRGB">
<feFlood flood-opacity="0" result="BackgroundImageFix"/>
<feGaussianBlur in="BackgroundImage" stdDeviation="10"/>
<feComposite in2="SourceAlpha" operator="in" result="effect1_backgroundBlur_3438_2377"/>
<feBlend mode="normal" in="SourceGraphic" in2="effect1_backgroundBlur_3438_2377" result="shape"/>
</filter>
<linearGradient id="paint0_linear_3438_2377" x1="5.3831" y1="184" x2="604.922" y2="184" gradientUnits="userSpaceOnUse">
<stop offset="0.03125" stop-color="#4294B7"/>
<stop offset="0.338937" stop-color="#4573C9"/>
<stop offset="0.695394" stop-color="#C17FE0"/>
<stop offset="1" stop-color="#FFF9EE"/>
</linearGradient>
<linearGradient id="paint1_linear_3438_2377" x1="0" y1="0" x2="581.493" y2="106.902" gradientUnits="userSpaceOnUse">
<stop stop-color="white" stop-opacity="0.64"/>
<stop offset="1" stop-color="white" stop-opacity="0.37"/>
</linearGradient>
<linearGradient id="paint2_linear_3438_2377" x1="0" y1="0" x2="580.051" y2="97.7693" gradientUnits="userSpaceOnUse">
<stop stop-color="white" stop-opacity="0.3"/>
<stop offset="1" stop-color="white" stop-opacity="0"/>
</linearGradient>
</defs>
</svg>
