<svg width="429" height="437" viewBox="0 0 429 437" fill="none" xmlns="http://www.w3.org/2000/svg">
<path d="M373.327 326.697C368.132 337.096 362.045 347.025 355.134 356.373L330.699 347.718C339.182 337.795 346.524 326.951 352.587 315.39C359.08 319.885 366.032 323.675 373.327 326.697Z" fill="url(#paint0_linear_1506_1167)"/>
<path d="M330.54 383.933C321.105 392.755 310.829 400.633 299.859 407.453L278.974 389.118C287.271 384.739 295.205 379.705 302.701 374.063V374.049C308.776 369.482 314.542 364.517 319.959 359.186L330.54 383.933Z" fill="url(#paint1_linear_1506_1167)"/>
<path d="M264.634 424.725C251.926 429.445 238.76 432.822 225.349 434.802L212.499 408.682C230.32 407.127 247.798 402.851 264.324 396.004L264.634 424.725Z" fill="url(#paint2_linear_1506_1167)"/>
<path d="M194.425 409.324L182.493 436.397C168.646 435.417 154.946 432.944 141.631 429.022L140.734 400.093C158.04 405.952 176.156 409.066 194.425 409.324Z" fill="url(#paint3_linear_1506_1167)"/>
<path d="M124.477 393.628L102.87 412.983C91.074 406.549 79.9678 398.924 69.725 390.227L80.3052 364.836C93.4841 376.618 108.378 386.326 124.477 393.628Z" fill="url(#paint4_linear_1506_1167)"/>
<path d="M34.6008 300.351L9.0701 300.56C5.24517 289.179 2.45329 277.477 0.728302 265.595C8.8233 265.443 16.9096 266.205 24.8338 267.866H24.8517C27.0381 278.986 30.3032 289.865 34.6008 300.351Z" fill="url(#paint5_linear_1506_1167)"/>
<path d="M69.7739 354.639L44.3479 364.382C36.1966 354.471 29.0233 343.796 22.9283 332.504L40.758 313.667C41.5553 315.262 42.4054 316.857 43.2725 318.419C50.5256 331.573 59.4317 343.745 69.7739 354.639Z" fill="url(#paint6_linear_1506_1167)"/>
<path d="M217.881 365.905L215.279 366.321C214.568 366.421 213.84 366.512 213.129 366.62C213.094 366.62 213.059 366.637 213.029 366.637C212.821 366.654 212.631 366.689 212.422 366.707C211.85 366.776 211.295 366.845 210.723 366.915C210.567 366.932 210.393 366.949 210.237 366.967C210.046 366.984 209.838 367.001 209.648 367.019C208.989 367.088 208.329 367.14 207.655 367.209C206.944 367.279 206.233 367.331 205.522 367.366C205.053 367.401 204.585 367.418 204.117 367.452C203.961 367.467 203.804 367.472 203.648 367.469C203.111 367.521 202.574 367.539 202.036 367.556C200.232 367.643 198.429 367.678 196.625 367.678C147.333 367.678 104.476 339.789 82.4838 298.736C124.907 339.771 145.061 319.185 145.061 319.185C163.723 295.166 179.922 294.226 179.922 294.226C179.922 294.226 212.581 289.925 231.641 314.536C247.874 335.466 233.827 362.939 217.881 365.905Z" fill="url(#paint7_linear_1506_1167)"/>
<path d="M250.58 354.284C247.977 356.001 245.256 357.649 242.358 359.262C241.318 359.661 240.277 360.043 239.219 360.424C238.977 360.511 238.721 360.598 238.456 360.684C237.78 360.928 237.104 361.153 236.427 361.361C236.271 361.413 236.128 361.461 235.976 361.517C235.299 361.743 234.589 361.95 233.895 362.158C233.305 362.332 232.733 362.523 232.143 362.662C232.053 362.698 231.96 362.727 231.865 362.748C231.189 362.957 230.478 363.165 229.767 363.338C229.715 363.355 229.68 363.355 229.627 363.372C229.003 363.546 228.362 363.702 227.72 363.876C227.421 363.945 227.113 364.014 226.823 364.084C226.476 364.171 226.125 364.239 225.8 364.327C225.501 364.396 225.228 364.448 224.95 364.517C224.881 364.534 224.829 364.552 224.76 364.569C224.655 364.586 224.552 364.621 224.447 364.639C224.395 364.656 224.326 364.656 224.273 364.674C224.212 364.693 224.148 364.705 224.083 364.708C223.077 364.933 222.071 365.141 221.047 365.333C220.007 365.541 218.954 365.731 217.891 365.905C233.83 362.939 247.879 335.466 231.645 314.532C212.584 289.916 179.925 294.222 179.925 294.222C113.186 286.418 81.7753 263.558 66.9983 243.405C53.2976 224.742 53.8528 208.404 53.8528 208.404C57.5081 214.019 62.0812 218.979 67.381 223.078C108.902 255.633 193.904 246.214 193.904 246.214C193.904 246.214 234.697 239.884 253.394 273.704C269.675 303.172 267.109 339.646 250.58 354.284Z" fill="url(#paint8_linear_1506_1167)"/>
<path d="M250.579 354.284C267.109 339.646 269.675 303.172 253.389 273.704C234.692 239.884 193.899 246.214 193.899 246.214C193.899 246.214 91.8821 233.535 82.8636 172.226C82.7769 171.653 82.7071 171.08 82.6384 170.49C79.6724 145.064 73.1166 127.946 66.3525 116.573C56.427 99.8493 46.0621 95.5479 46.0621 95.5479C60.1973 95.5648 70.7785 98.6005 79.3096 103.561C92.821 111.417 101.216 124.061 110.512 137.155C118.924 148.967 128.082 161.16 142.404 170.49C182.642 196.715 221.683 175 221.683 175C221.683 175 241.455 176.683 260.253 192.275C261.9 193.645 263.565 195.119 265.178 196.715C265.595 197.113 265.993 197.53 266.392 197.947C268.006 199.594 269.6 201.363 271.145 203.271C271.526 203.739 271.925 204.224 272.306 204.711C272.688 205.209 273.052 205.698 273.434 206.219C273.868 206.792 274.301 207.399 274.73 208.006C275.372 208.908 275.996 209.826 276.602 210.781C277.366 211.96 278.111 213.173 278.84 214.44C289.967 233.71 317.632 310.231 250.579 354.284Z" fill="url(#paint9_linear_1506_1167)"/>
<path d="M326.459 235.825C326.461 243.334 325.835 250.83 324.586 258.234C324.569 258.333 324.481 258.754 324.378 259.413C324.135 260.748 323.892 262.049 323.614 263.367C323.614 263.384 323.597 263.419 323.597 263.437C323.563 263.645 323.511 263.836 323.476 264.026C323.199 265.345 322.886 266.645 322.579 267.946V267.964C322.232 269.351 321.868 270.738 321.469 272.126C321.087 273.461 320.706 274.797 320.273 276.112L320.22 276.32C320.168 276.511 320.099 276.684 320.03 276.876C319.873 277.343 319.731 277.829 319.561 278.315C319.406 278.8 319.249 279.268 319.076 279.737C318.867 280.327 318.659 280.933 318.434 281.524C318.364 281.696 318.312 281.888 318.243 282.061C317.966 282.842 317.671 283.622 317.359 284.402C317.289 284.594 317.202 284.784 317.133 284.975C316.717 286.051 316.266 287.108 315.838 288.164C315.808 288.25 315.767 288.331 315.716 288.407C315.317 289.36 314.901 290.28 314.467 291.216C314.415 291.373 314.328 291.546 314.259 291.702C314.159 291.945 314.051 292.171 313.929 292.4C313.652 292.99 313.374 293.596 313.079 294.186C312.802 294.794 312.49 295.382 312.195 295.973C311.71 296.944 311.206 297.899 310.686 298.852C310.495 299.216 310.304 299.581 310.114 299.928C309.732 300.625 309.351 301.315 308.951 301.992C308.865 302.147 308.761 302.304 308.674 302.46C308.397 302.979 308.084 303.483 307.777 304.003C307.378 304.714 306.945 305.408 306.493 306.102L305.818 307.198C305.471 307.753 305.106 308.326 304.721 308.88C304.531 309.179 304.34 309.47 304.132 309.765C303.802 310.286 303.456 310.789 303.092 311.309C302.605 312.038 302.102 312.748 301.582 313.46C301.305 313.841 301.028 314.222 300.733 314.604C300.213 315.351 299.657 316.099 299.084 316.825C298.079 318.142 297.038 319.443 295.98 320.726C295.564 321.23 295.131 321.75 294.697 322.236C294.489 322.478 294.281 322.735 294.055 322.982C293.83 323.242 293.622 323.48 293.397 323.727C292.599 324.646 291.783 325.531 290.968 326.418C290.794 326.626 290.604 326.817 290.431 327.008C289.615 327.858 288.8 328.708 287.985 329.523L287.846 329.662C287.71 329.809 287.565 329.949 287.413 330.079C286.516 330.976 285.609 331.865 284.69 332.715C283.666 333.669 282.643 334.608 281.6 335.524C280.558 336.44 279.502 337.328 278.426 338.23H278.409C277.334 339.114 276.241 339.981 275.148 340.831C272.946 342.53 270.691 344.16 268.384 345.722C267.24 346.503 266.06 347.266 264.881 348.014C263.702 348.763 262.505 349.471 261.308 350.183C260.198 350.825 259.088 351.466 257.96 352.076C256.677 352.774 255.376 353.464 254.058 354.122C253.963 354.176 253.865 354.222 253.764 354.262C252.568 354.869 251.352 355.441 250.138 355.996C248.872 356.585 247.589 357.158 246.288 357.695L244.519 358.424C244.189 358.562 243.842 358.702 243.495 358.823C243.114 358.979 242.75 359.135 242.368 359.274C245.265 357.66 247.987 356.013 250.589 354.296C317.642 310.245 289.977 233.722 278.86 214.452C278.131 213.186 277.386 211.972 276.622 210.793C276.015 209.838 275.391 208.919 274.75 208.017C274.316 207.411 273.883 206.804 273.454 206.231C273.089 205.71 272.708 205.208 272.326 204.723C271.944 204.237 271.563 203.751 271.165 203.283C269.62 201.375 268.025 199.606 266.412 197.958C266.013 197.542 265.615 197.125 265.198 196.727C263.584 195.132 261.92 193.657 260.273 192.287C207.911 142.839 211.537 104.89 211.537 104.89C209.63 92.8539 197.802 81.4415 187.499 75.9262C180.68 72.2383 173.178 69.9893 165.455 69.3185C164.916 69.231 164.37 69.196 163.825 69.2139C173.642 68.1564 180.111 67.41 188.332 67.6193C196.123 67.6506 203.853 69.0054 211.191 71.6257C227.945 78.0609 233.825 93.7917 245.133 106.296C254.446 116.582 265.651 123.293 276.387 131.792C293.985 145.753 307.737 163.965 316.348 184.712C323.045 200.92 326.481 218.289 326.459 235.825Z" fill="url(#paint10_linear_1506_1167)"/>
<path d="M260.258 192.275C241.456 176.683 221.688 175 221.688 175C159.558 160.948 117.066 126.994 85.8903 69.7053C65.4414 32.1902 64.2973 0 64.2973 0C96.3648 61.6824 144.618 95.5519 211.524 104.878C211.52 104.878 207.896 142.831 260.258 192.275Z" fill="url(#paint11_linear_1506_1167)"/>
<path d="M352.585 315.39C346.522 326.951 339.181 337.795 330.7 347.718C328.549 350.216 326.34 352.656 324.074 355.038C322.722 356.442 321.368 357.828 319.964 359.183C314.546 364.515 308.78 369.481 302.703 374.049V374.066C295.207 379.707 287.272 384.74 278.974 389.118C274.223 391.633 269.332 393.94 264.324 396.004C247.798 402.851 230.32 407.127 212.499 408.682C211.077 408.804 209.655 408.907 208.214 408.994C204.554 409.219 200.839 409.341 197.113 409.341C196.216 409.341 195.327 409.341 194.422 409.324C176.152 409.068 158.034 405.955 140.726 400.097C139.63 399.715 138.54 399.334 137.447 398.935C133.042 397.34 128.706 395.57 124.474 393.628C108.374 386.326 93.4791 376.618 80.2993 364.836C76.6569 361.593 73.1475 358.194 69.7709 354.639C59.4297 343.747 50.5243 331.576 43.2715 318.424C42.4044 316.864 41.5543 315.268 40.757 313.672C38.5192 309.336 36.4668 304.895 34.5998 300.351C30.303 289.866 27.0385 278.986 24.8528 267.866C24.8459 267.86 24.8408 267.852 24.8376 267.843C24.8345 267.834 24.8336 267.824 24.8348 267.815C25.1478 267.884 25.4597 267.936 25.7717 268.023L26.0497 268.075C28.5642 268.63 31.1834 269.289 33.8543 270.068C34.4095 270.223 34.9636 270.397 35.5367 270.566C36.3858 270.826 37.2356 271.103 38.086 271.398C38.9362 271.697 39.8032 271.988 40.6703 272.295C41.2424 272.504 41.8154 272.712 42.4044 272.937C42.9247 273.129 43.428 273.336 43.9482 273.544C44.3817 273.718 44.8332 273.891 45.2668 274.082C45.6654 274.239 46.0471 274.394 46.4458 274.586C46.7408 274.692 47.0302 274.813 47.3128 274.949C47.4175 274.984 47.5211 275.036 47.6427 275.088C47.7325 275.121 47.8195 275.162 47.9028 275.21C50.0017 276.128 52.1345 277.152 54.2683 278.279C54.3586 278.319 54.4456 278.365 54.5284 278.419C54.7357 278.518 54.9271 278.627 55.1354 278.731L55.3427 278.83C55.4158 278.864 55.4855 278.905 55.551 278.952C55.7254 279.039 55.8978 279.125 56.0722 279.229C56.3144 279.351 56.5705 279.49 56.8346 279.645L58.1352 280.374C58.4651 280.564 58.812 280.756 59.1588 280.964C59.3153 281.051 59.4707 281.137 59.6272 281.241C60.9627 282.021 62.2982 282.855 63.6506 283.722C64.2924 284.137 64.9342 284.554 65.5761 284.987C66.5478 285.646 67.5016 286.306 68.4723 287.017C68.9237 287.329 69.3692 287.658 69.8257 287.988C72.6521 290.069 75.4616 292.342 78.2721 294.839C78.6539 295.168 79.0525 295.516 79.4342 295.88C79.4845 295.915 79.5309 295.956 79.5727 296.001C79.7141 296.113 79.8474 296.234 79.9714 296.365C80.8046 297.128 81.6371 297.909 82.4689 298.706L82.4869 298.724C104.479 339.777 147.336 367.666 196.627 367.666C198.431 367.666 200.235 367.631 202.038 367.544C202.576 367.527 203.114 367.51 203.651 367.459C203.808 367.462 203.964 367.456 204.12 367.441C204.588 367.406 205.055 367.389 205.524 367.354C206.235 367.319 206.947 367.267 207.658 367.197C208.334 367.129 208.993 367.077 209.651 367.007L210.241 366.955C210.397 366.937 210.57 366.92 210.726 366.903C211.299 366.834 211.854 366.764 212.426 366.695C212.635 366.677 212.825 366.643 213.033 366.625C213.068 366.625 213.103 366.608 213.133 366.608C213.845 366.504 214.572 366.417 215.284 366.309L217.886 365.893C218.943 365.719 220.002 365.529 221.042 365.321C222.066 365.129 223.072 364.922 224.077 364.696C224.142 364.693 224.206 364.681 224.268 364.662C224.32 364.644 224.39 364.644 224.441 364.627C224.541 364.609 224.649 364.575 224.754 364.557C224.824 364.54 224.875 364.522 224.944 364.506C225.222 364.436 225.499 364.384 225.794 364.315C226.124 364.227 226.471 364.159 226.818 364.072C227.117 364.002 227.425 363.933 227.72 363.864C228.362 363.69 229.003 363.535 229.627 363.36C229.679 363.343 229.714 363.343 229.766 363.326C230.477 363.153 231.188 362.945 231.865 362.737C231.96 362.716 232.053 362.687 232.143 362.65C232.732 362.511 233.304 362.32 233.894 362.147C234.592 361.938 235.299 361.731 235.975 361.505C236.131 361.453 236.274 361.405 236.426 361.349C237.102 361.141 237.778 360.916 238.455 360.673C238.716 360.586 238.976 360.499 239.218 360.412C240.276 360.031 241.318 359.649 242.357 359.25C242.739 359.112 243.104 358.951 243.485 358.8C243.832 358.678 244.183 358.539 244.508 358.401L246.277 357.673C247.579 357.135 248.861 356.563 250.128 355.973C251.342 355.418 252.556 354.846 253.753 354.239C253.856 354.201 253.956 354.154 254.052 354.1C255.369 353.441 256.671 352.747 257.954 352.054C259.082 351.447 260.191 350.805 261.301 350.16C262.497 349.448 263.693 348.738 264.874 347.992C266.055 347.247 267.233 346.483 268.377 345.7C270.685 344.156 272.94 342.526 275.142 340.809C276.239 339.959 277.327 339.091 278.402 338.207H278.419C279.496 337.311 280.553 336.42 281.594 335.502C282.634 334.583 283.658 333.646 284.683 332.692C285.602 331.842 286.504 330.957 287.406 330.055C287.559 329.926 287.704 329.787 287.839 329.639L287.978 329.5C288.793 328.686 289.608 327.836 290.424 326.985C290.597 326.795 290.788 326.604 290.962 326.396C291.776 325.511 292.591 324.626 293.39 323.705C293.615 323.462 293.823 323.22 294.048 322.96C294.275 322.717 294.482 322.457 294.69 322.214C295.124 321.728 295.557 321.208 295.974 320.705C297.031 319.422 298.073 318.12 299.078 316.803C299.651 316.074 300.206 315.329 300.726 314.582C301.025 314.201 301.298 313.82 301.576 313.438C302.096 312.727 302.6 312.016 303.085 311.288C303.449 310.767 303.796 310.264 304.125 309.744C304.334 309.445 304.524 309.154 304.715 308.86C305.096 308.305 305.461 307.732 305.812 307.177L306.488 306.081C306.939 305.383 307.372 304.694 307.772 303.982C308.084 303.462 308.396 302.96 308.669 302.439C308.757 302.283 308.86 302.126 308.947 301.971C309.346 301.294 309.727 300.601 310.109 299.907C310.3 299.56 310.491 299.195 310.681 298.832C311.201 297.878 311.705 296.924 312.19 295.952C312.489 295.362 312.798 294.773 313.075 294.166C313.374 293.576 313.647 292.97 313.925 292.379C314.046 292.154 314.151 291.929 314.254 291.682C314.324 291.525 314.411 291.352 314.462 291.196C314.896 290.26 315.313 289.341 315.711 288.386C315.762 288.311 315.803 288.229 315.833 288.144C316.266 287.085 316.718 286.028 317.128 284.955C317.198 284.763 317.285 284.573 317.354 284.381C317.666 283.601 317.961 282.82 318.239 282.04C318.307 281.867 318.36 281.677 318.429 281.503C318.654 280.913 318.863 280.307 319.071 279.716C319.244 279.248 319.401 278.779 319.556 278.294C319.731 277.809 319.868 277.323 320.025 276.855C320.094 276.664 320.164 276.49 320.216 276.3C320.233 276.23 320.251 276.161 320.268 276.092C320.701 274.773 321.083 273.438 321.464 272.105C321.862 270.717 322.226 269.329 322.573 267.942V267.924C322.886 266.629 323.198 265.323 323.47 264.004C323.505 263.814 323.557 263.623 323.592 263.415C323.592 263.397 323.61 263.364 323.61 263.346C323.887 262.028 324.13 260.726 324.372 259.391C323.949 262.483 323.844 265.61 324.06 268.722C324.06 268.913 324.078 269.104 324.095 269.295C324.112 269.555 324.13 269.833 324.164 270.11C324.182 270.475 324.233 270.855 324.263 271.255C324.298 271.602 324.35 271.966 324.402 272.33C324.489 272.954 324.575 273.613 324.701 274.273C324.753 274.602 324.801 274.931 324.874 275.278C324.996 275.955 325.151 276.649 325.308 277.342C325.446 277.966 325.607 278.591 325.776 279.236C325.881 279.651 326.001 280.086 326.14 280.532C326.262 280.965 326.4 281.417 326.539 281.85C326.677 282.301 326.838 282.752 326.989 283.202L327.089 283.514C327.21 283.844 327.331 284.191 327.469 284.538C327.557 284.798 327.661 285.058 327.782 285.335C327.904 285.647 328.025 285.977 328.163 286.289C328.462 287 328.771 287.711 329.118 288.44C329.499 289.324 329.95 290.226 330.435 291.131C330.734 291.686 331.025 292.241 331.372 292.813C331.927 293.819 332.551 294.825 333.228 295.831C333.506 296.282 333.818 296.733 334.125 297.184C334.402 297.599 334.697 298.016 335.01 298.433C335.721 299.422 336.484 300.409 337.302 301.381C337.683 301.866 338.1 302.353 338.533 302.855C338.655 302.994 338.776 303.133 338.915 303.289C339.313 303.74 339.73 304.186 340.147 304.642C341.065 305.63 342.04 306.619 343.078 307.59C343.441 307.955 343.823 308.302 344.205 308.648C344.673 309.082 345.142 309.515 345.644 309.931C346.286 310.504 346.946 311.059 347.637 311.613C348.991 312.724 350.413 313.817 351.923 314.892C351.94 314.909 351.958 314.909 351.975 314.926C352.186 315.112 352.393 315.248 352.585 315.39Z" fill="url(#paint12_linear_1506_1167)"/>
<path d="M428.028 94.8183C418.003 71.7672 392.854 75.0112 392.854 75.0112C376.795 76.7284 364.22 91.1058 359.45 105.707C358.826 107.616 358.305 109.558 357.856 111.518C357.756 111.951 357.647 112.385 357.557 112.836C357.457 113.391 357.331 113.933 357.245 114.484C357.145 114.987 357.054 115.472 356.985 115.979C356.885 116.477 356.811 116.984 356.741 117.474C353.03 142.744 360.921 169.904 361.737 172.593C361.749 172.647 361.766 172.699 361.788 172.749C361.798 172.765 361.804 172.783 361.806 172.802C367.42 187.966 370.898 203.837 372.143 219.959C372.158 220.12 372.164 220.282 372.16 220.444C372.169 220.46 372.174 220.478 372.174 220.497C372.174 220.515 372.169 220.533 372.16 220.549C372.247 224.104 371.692 236.003 360.869 237.025C346.02 238.414 348.174 220.341 347.55 210.975C345.624 182.132 316.348 184.716 316.348 184.716C312.909 176.42 308.633 168.497 303.586 161.069C292.954 139.164 296.544 110.062 300.55 91.8672C301.782 86.0851 303.333 80.3758 305.199 74.7661C305.199 74.7661 310.332 77.437 319.334 77.9752C323.813 78.2364 328.307 77.9688 332.724 77.1779C342.491 75.4837 354.45 71.0387 367.932 61.3255C396.497 40.7053 425.826 75.0112 428.028 94.8183Z" fill="url(#paint13_linear_1506_1167)"/>
<path d="M428.025 94.8193C425.823 75.0123 396.494 40.7023 367.929 61.3275C330.83 88.09 305.196 74.7691 305.196 74.7691C287.193 64.4669 278.66 52.1007 274.913 41.0013C271.595 31.36 271.334 20.9291 274.168 11.1343C301.605 47.3319 352.128 19.0784 394.967 30.6114C437.824 42.1454 428.025 94.8193 428.025 94.8193Z" fill="url(#paint14_linear_1506_1167)"/>
<path d="M394.661 235.817C394.72 266.771 387.683 297.328 374.091 325.138C373.849 325.659 373.592 326.179 373.327 326.699C353.157 305.383 367.639 287.762 371.229 268.683C374.802 249.588 372.166 220.554 372.166 220.554C372.174 220.539 372.178 220.522 372.178 220.504C372.178 220.487 372.174 220.47 372.166 220.454C372.17 220.292 372.164 220.13 372.148 219.968C370.903 203.846 367.424 187.975 361.811 172.811C361.809 172.792 361.803 172.775 361.794 172.759C361.771 172.709 361.754 172.656 361.743 172.602C360.927 169.911 353.035 142.753 356.747 117.483C381.492 151.97 394.756 193.37 394.661 235.817Z" fill="url(#paint15_linear_1506_1167)"/>
<path d="M373.327 326.697C366.031 323.676 359.077 319.885 352.584 315.39C352.393 315.25 352.186 315.112 351.994 314.955C351.978 314.938 351.96 314.938 351.943 314.921C350.434 313.846 349.012 312.752 347.657 311.642C346.96 311.088 346.305 310.533 345.664 309.96C345.166 309.544 344.693 309.111 344.225 308.677C343.843 308.33 343.461 307.98 343.098 307.619C342.056 306.648 341.085 305.658 340.166 304.671C339.733 304.219 339.334 303.774 338.935 303.317C338.796 303.162 338.675 303.018 338.553 302.884C338.119 302.399 337.721 301.895 337.322 301.41C336.507 300.438 335.743 299.45 335.03 298.462C334.717 298.045 334.422 297.629 334.145 297.213C333.833 296.762 333.521 296.311 333.248 295.86C332.571 294.854 331.952 293.847 331.392 292.842C331.062 292.287 330.75 291.715 330.455 291.16C329.97 290.258 329.518 289.356 329.138 288.469C328.791 287.74 328.479 287.028 328.183 286.318C328.044 286.006 327.924 285.676 327.802 285.364C327.681 285.086 327.577 284.826 327.489 284.567C327.351 284.22 327.23 283.869 327.109 283.543L327.009 283.231C326.853 282.781 326.697 282.329 326.559 281.879C326.419 281.445 326.28 280.994 326.16 280.56C326.021 280.11 325.901 279.675 325.796 279.265C325.623 278.623 325.466 277.998 325.328 277.371C325.171 276.674 325.016 275.984 324.894 275.307C324.824 274.96 324.773 274.63 324.721 274.302C324.599 273.642 324.512 272.983 324.422 272.359C324.37 271.994 324.322 271.631 324.283 271.284C324.248 270.902 324.213 270.503 324.184 270.139C324.15 269.862 324.132 269.583 324.115 269.323C324.098 269.133 324.08 268.942 324.08 268.751C323.864 265.638 323.969 262.511 324.392 259.42C324.496 258.761 324.583 258.344 324.6 258.241C328.784 233.446 325.929 207.974 316.362 184.719C316.362 184.719 345.638 182.135 347.563 210.979C348.188 220.347 346.038 238.417 360.883 237.03C371.707 236.006 372.262 224.108 372.175 220.552C372.175 220.552 374.811 249.586 371.238 268.682C367.639 287.76 353.157 305.381 373.327 326.697Z" fill="url(#paint16_linear_1506_1167)"/>
<defs>
<linearGradient id="paint0_linear_1506_1167" x1="369.874" y1="348.299" x2="337.823" y2="326.781" gradientUnits="userSpaceOnUse">
<stop stop-color="#F0C9DE"/>
<stop offset="0.511" stop-color="#A562E9"/>
<stop offset="0.567" stop-color="#A05FE3"/>
<stop offset="0.639" stop-color="#9358D2"/>
<stop offset="0.721" stop-color="#7F4DB7"/>
<stop offset="0.809" stop-color="#623D91"/>
<stop offset="0.904" stop-color="#3D2861"/>
<stop offset="1" stop-color="#111028"/>
</linearGradient>
<linearGradient id="paint1_linear_1506_1167" x1="319.763" y1="401.999" x2="298.081" y2="368.083" gradientUnits="userSpaceOnUse">
<stop stop-color="#F0C9DE"/>
<stop offset="0.541" stop-color="#A562E9"/>
<stop offset="0.593" stop-color="#A05FE3"/>
<stop offset="0.661" stop-color="#9358D2"/>
<stop offset="0.738" stop-color="#7F4DB7"/>
<stop offset="0.821" stop-color="#623D91"/>
<stop offset="0.909" stop-color="#3D2861"/>
<stop offset="1" stop-color="#111028"/>
</linearGradient>
<linearGradient id="paint2_linear_1506_1167" x1="248.003" y1="438.914" x2="241.281" y2="392.723" gradientUnits="userSpaceOnUse">
<stop stop-color="#F0C9DE"/>
<stop offset="0.511" stop-color="#A562E9"/>
<stop offset="0.564" stop-color="#A05FE3"/>
<stop offset="0.633" stop-color="#9358D2"/>
<stop offset="0.711" stop-color="#7F4DB7"/>
<stop offset="0.795" stop-color="#623D91"/>
<stop offset="0.885" stop-color="#3D2861"/>
<stop offset="0.976" stop-color="#111028"/>
</linearGradient>
<linearGradient id="paint3_linear_1506_1167" x1="161.244" y1="441.879" x2="164.903" y2="394.858" gradientUnits="userSpaceOnUse">
<stop stop-color="#F0C9DE"/>
<stop offset="0.541" stop-color="#A562E9"/>
<stop offset="0.593" stop-color="#A05FE3"/>
<stop offset="0.661" stop-color="#9358D2"/>
<stop offset="0.738" stop-color="#7F4DB7"/>
<stop offset="0.821" stop-color="#623D91"/>
<stop offset="0.909" stop-color="#3D2861"/>
<stop offset="1" stop-color="#111028"/>
</linearGradient>
<linearGradient id="paint4_linear_1506_1167" x1="80.5111" y1="410.672" x2="103.8" y2="367.458" gradientUnits="userSpaceOnUse">
<stop stop-color="#F0C9DE"/>
<stop offset="0.541" stop-color="#A562E9"/>
<stop offset="0.593" stop-color="#A05FE3"/>
<stop offset="0.661" stop-color="#9358D2"/>
<stop offset="0.738" stop-color="#7F4DB7"/>
<stop offset="0.821" stop-color="#623D91"/>
<stop offset="0.909" stop-color="#3D2861"/>
<stop offset="1" stop-color="#111028"/>
</linearGradient>
<linearGradient id="paint5_linear_1506_1167" x1="-4.62355" y1="287.371" x2="42.3929" y2="278.693" gradientUnits="userSpaceOnUse">
<stop stop-color="#F0C9DE"/>
<stop offset="0.541" stop-color="#A562E9"/>
<stop offset="0.593" stop-color="#A05FE3"/>
<stop offset="0.661" stop-color="#9358D2"/>
<stop offset="0.738" stop-color="#7F4DB7"/>
<stop offset="0.821" stop-color="#623D91"/>
<stop offset="0.909" stop-color="#3D2861"/>
<stop offset="1" stop-color="#111028"/>
</linearGradient>
<linearGradient id="paint6_linear_1506_1167" x1="27.0039" y1="354.695" x2="66.1738" y2="330.393" gradientUnits="userSpaceOnUse">
<stop stop-color="#F0C9DE"/>
<stop offset="0.541" stop-color="#A562E9"/>
<stop offset="0.593" stop-color="#A05FE3"/>
<stop offset="0.661" stop-color="#9358D2"/>
<stop offset="0.738" stop-color="#7F4DB7"/>
<stop offset="0.821" stop-color="#623D91"/>
<stop offset="0.909" stop-color="#3D2861"/>
<stop offset="1" stop-color="#111028"/>
</linearGradient>
<linearGradient id="paint7_linear_1506_1167" x1="131.428" y1="378.812" x2="145.26" y2="256.326" gradientUnits="userSpaceOnUse">
<stop stop-color="#53EA90"/>
<stop offset="0.851" stop-color="#3B71C7"/>
</linearGradient>
<linearGradient id="paint8_linear_1506_1167" x1="115.112" y1="327.947" x2="181.805" y2="179.43" gradientUnits="userSpaceOnUse">
<stop stop-color="#53EA90"/>
<stop offset="0.725" stop-color="#3B71C7"/>
</linearGradient>
<linearGradient id="paint9_linear_1506_1167" x1="4.89981" y1="224.916" x2="394.206" y2="224.916" gradientUnits="userSpaceOnUse">
<stop stop-color="#53EA90"/>
<stop offset="0.064" stop-color="#51E492"/>
<stop offset="0.143" stop-color="#4ED599"/>
<stop offset="0.23" stop-color="#49BCA4"/>
<stop offset="0.323" stop-color="#4299B4"/>
<stop offset="0.41" stop-color="#3B71C7"/>
<stop offset="1" stop-color="#111028"/>
</linearGradient>
<linearGradient id="paint10_linear_1506_1167" x1="156.344" y1="213.429" x2="307.593" y2="213.429" gradientUnits="userSpaceOnUse">
<stop stop-color="#53EA90"/>
<stop offset="1" stop-color="#3B71C7"/>
</linearGradient>
<linearGradient id="paint11_linear_1506_1167" x1="-50.1436" y1="-3.46095" x2="382.93" y2="216.334" gradientUnits="userSpaceOnUse">
<stop offset="0.026" stop-color="#53EA90"/>
<stop offset="0.11" stop-color="#51E492"/>
<stop offset="0.214" stop-color="#4ED599"/>
<stop offset="0.329" stop-color="#49BCA4"/>
<stop offset="0.45" stop-color="#4299B4"/>
<stop offset="0.566" stop-color="#3B71C7"/>
<stop offset="0.884" stop-color="#111028"/>
</linearGradient>
<linearGradient id="paint12_linear_1506_1167" x1="-39.7325" y1="355.359" x2="343.021" y2="158.618" gradientUnits="userSpaceOnUse">
<stop stop-color="#F0C9DE"/>
<stop offset="0.541" stop-color="#A562E9"/>
<stop offset="0.593" stop-color="#A05FE3"/>
<stop offset="0.661" stop-color="#9358D2"/>
<stop offset="0.738" stop-color="#7F4DB7"/>
<stop offset="0.821" stop-color="#623D91"/>
<stop offset="0.909" stop-color="#3D2861"/>
<stop offset="1" stop-color="#111028"/>
</linearGradient>
<linearGradient id="paint13_linear_1506_1167" x1="362.303" y1="-48.6915" x2="362.303" y2="344.751" gradientUnits="userSpaceOnUse">
<stop offset="0.096" stop-color="#53EA90"/>
<stop offset="0.161" stop-color="#51E492"/>
<stop offset="0.242" stop-color="#4ED599"/>
<stop offset="0.331" stop-color="#49BCA4"/>
<stop offset="0.425" stop-color="#4299B4"/>
<stop offset="0.515" stop-color="#3B71C7"/>
<stop offset="0.988" stop-color="#111028"/>
</linearGradient>
<linearGradient id="paint14_linear_1506_1167" x1="222.678" y1="35.5703" x2="416.58" y2="127.848" gradientUnits="userSpaceOnUse">
<stop offset="0.14" stop-color="#53EA90"/>
<stop offset="1" stop-color="#3B71C7"/>
</linearGradient>
<linearGradient id="paint15_linear_1506_1167" x1="412.206" y1="222.091" x2="331.602" y2="222.091" gradientUnits="userSpaceOnUse">
<stop stop-color="#F0C9DE"/>
<stop offset="0.492" stop-color="#A562E9"/>
<stop offset="0.537" stop-color="#A05FE3"/>
<stop offset="0.597" stop-color="#9358D2"/>
<stop offset="0.664" stop-color="#7F4DB7"/>
<stop offset="0.736" stop-color="#623D91"/>
<stop offset="0.814" stop-color="#3D2861"/>
<stop offset="0.893" stop-color="#111028"/>
</linearGradient>
<linearGradient id="paint16_linear_1506_1167" x1="344.845" y1="386.637" x2="344.845" y2="200" gradientUnits="userSpaceOnUse">
<stop stop-color="#F0C9DE"/>
<stop offset="1" stop-color="#A562E9"/>
</linearGradient>
</defs>
</svg>
